<svg width="271" height="80" viewBox="0 0 271 80" fill="none" xmlns="http://www.w3.org/2000/svg">
<path d="M85.6834 13.1726C85.7037 12.6499 85.6148 12.1287 85.4226 11.6425C85.2486 11.2491 84.8448 11.0555 84.2112 11.0555H84V10.4309H86.5469C86.8571 10.421 87.1664 10.4675 87.4601 10.5683C87.7001 10.6531 87.9069 10.8129 88.0502 11.0243C88.2139 11.2785 88.318 11.5668 88.3546 11.8674C88.417 12.3016 88.4461 12.7401 88.4416 13.1789V23.4462H92.5477V10.4247H95.2437V23.44H99.3498V10.4247H102.077V24.3643H85.6834V13.1726Z" fill="#A22421"/>
<path d="M104.947 13.1726C104.968 12.6492 104.877 12.1274 104.68 11.6425C104.506 11.249 104.102 11.0554 103.469 11.0554H103.264V10.4309H105.804C106.117 10.4215 106.428 10.468 106.724 10.5683C106.962 10.653 107.167 10.813 107.308 11.0242C107.473 11.2787 107.581 11.5664 107.624 11.8673C107.695 12.3008 107.728 12.7396 107.724 13.1788V17.2008L111.364 12.6542C111.588 12.3555 111.831 12.0718 112.091 11.8048C112.345 11.5362 112.631 11.2993 112.942 11.0991C113.248 10.8936 113.58 10.7298 113.93 10.612C114.302 10.4863 114.693 10.425 115.085 10.4309H116.564V11.1678C115.829 11.1586 115.098 11.264 114.396 11.4801C113.726 11.6956 113.139 12.1119 112.712 12.6729L109.606 16.5638L114.464 21.6475C114.733 21.9412 115.022 22.2166 115.327 22.4719C115.638 22.7217 115.949 22.9528 116.234 23.1589C116.504 23.349 116.788 23.5162 117.085 23.6585C117.316 23.769 117.56 23.8468 117.812 23.8896V24.3642C117.61 24.4324 117.402 24.4825 117.191 24.5141C116.895 24.5584 116.596 24.5793 116.296 24.5766C115.901 24.5764 115.507 24.5451 115.116 24.4829C114.687 24.412 114.269 24.2839 113.874 24.1019C113.413 23.8864 112.974 23.6271 112.563 23.3275C112.048 22.9424 111.569 22.5096 111.134 22.0347L107.749 18.4811V24.3642H105.009L104.947 13.1726Z" fill="#A22421"/>
<path d="M116.246 17.407C116.239 16.4109 116.408 15.4214 116.743 14.4842C117.054 13.6152 117.533 12.817 118.153 12.1359C118.769 11.4715 119.513 10.9402 120.34 10.5746C121.243 10.1953 122.212 10 123.191 10C124.17 10 125.139 10.1953 126.043 10.5746C126.869 10.9371 127.612 11.4688 128.223 12.1359C128.837 12.8193 129.312 13.6171 129.621 14.4842C130.283 16.3758 130.283 18.4382 129.621 20.3298C129.312 21.1969 128.837 21.9947 128.223 22.6781C127.612 23.3451 126.869 23.8769 126.043 24.2394C125.139 24.6187 124.17 24.814 123.191 24.814C122.212 24.814 121.243 24.6187 120.34 24.2394C119.513 23.8737 118.769 23.3425 118.153 22.6781C117.533 21.9969 117.054 21.1987 116.743 20.3298C116.408 19.3926 116.239 18.4031 116.246 17.407ZM127.217 17.407C127.217 15.3252 126.865 13.7347 126.161 12.6355C125.853 12.1222 125.418 11.6976 124.899 11.4028C124.38 11.108 123.794 10.9531 123.198 10.9531C122.601 10.9531 122.015 11.108 121.496 11.4028C120.977 11.6976 120.542 12.1222 120.234 12.6355C119.539 13.7535 119.197 15.346 119.197 17.407C119.197 19.4679 119.539 21.0543 120.234 22.1784C120.542 22.6918 120.977 23.1164 121.496 23.4112C122.015 23.706 122.601 23.8609 123.198 23.8609C123.794 23.8609 124.38 23.706 124.899 23.4112C125.418 23.1164 125.853 22.6918 126.161 22.1784C126.863 21.0543 127.217 19.4679 127.217 17.407Z" fill="#A22421"/>
<path d="M132.895 13.1726C132.915 12.6499 132.826 12.1286 132.634 11.6425C132.46 11.2491 132.056 11.0554 131.423 11.0554H131.211V10.4309H142.455V24.3643H139.722V11.374H135.175V13.1726C135.198 15.0517 135.088 16.9301 134.845 18.7934C134.701 20.0104 134.398 21.2031 133.945 22.3408C133.664 23.0805 133.187 23.7286 132.566 24.2144C132.049 24.5664 131.438 24.7535 130.814 24.7515C130.574 24.7537 130.335 24.7349 130.099 24.6953C129.913 24.668 129.73 24.622 129.553 24.5579V23.9021C130.02 23.7976 130.456 23.5836 130.826 23.2776C131.313 22.8364 131.675 22.2742 131.876 21.6476C132.241 20.6266 132.485 19.5658 132.603 18.4874C132.818 16.7243 132.915 14.9488 132.895 13.1726Z" fill="#A22421"/>
<path d="M155.357 21.7225C155.561 22.2747 155.876 22.7787 156.283 23.2026C156.613 23.5486 157.052 23.7692 157.525 23.8272V24.3643C157.414 24.3643 157.258 24.4142 157.053 24.4392C156.848 24.4642 156.668 24.4704 156.513 24.4704C156.15 24.4689 155.789 24.4355 155.432 24.3705C155.035 24.3052 154.652 24.1766 154.295 23.9895C153.898 23.7821 153.542 23.5026 153.245 23.1651C152.871 22.738 152.574 22.2474 152.369 21.7162L151.885 20.5296H146.251L144.536 24.3643H143.486L149.698 10.3997H150.649L155.357 21.7225ZM146.717 19.5866H151.5L149.17 14.0657L146.717 19.5866Z" fill="#A22421"/>
<path d="M94.5542 34.9002L87.8204 46.96H85.9257V35.5373C85.9468 35.0124 85.8579 34.489 85.6648 34.0009C85.5415 33.7881 85.3564 33.6183 85.1343 33.5145C84.9121 33.4106 84.6637 33.3777 84.4224 33.4201H84V32.9954H85.8947C86.2017 32.9887 86.5084 33.0201 86.8078 33.0891C87.0424 33.1438 87.2509 33.2784 87.398 33.47C87.563 33.7028 87.6676 33.9733 87.7023 34.2569C87.7661 34.6806 87.7952 35.1088 87.7893 35.5373V45.0552L94.5231 32.9954H96.4178V46.96H94.5231L94.5542 34.9002Z" fill="white"/>
<path d="M110.09 44.4244C110.07 44.9472 110.159 45.4684 110.351 45.9546C110.525 46.3418 110.939 46.5354 111.594 46.5354H112.016V46.9601H110.152C109.843 46.9661 109.535 46.9346 109.233 46.8664C109 46.8123 108.793 46.6774 108.649 46.4854C108.483 46.2573 108.376 45.9911 108.338 45.711C108.277 45.2851 108.25 44.8548 108.258 44.4244V40.1901H101.878V46.9601H99.9833V35.5373C100.004 35.0125 99.9155 34.489 99.7224 34.0009C99.5485 33.6137 99.1344 33.4201 98.48 33.4201H98.0576V32.9955H99.9212C100.252 32.9903 100.582 33.0281 100.903 33.1079C101.136 33.1658 101.343 33.2998 101.493 33.4888C101.655 33.723 101.76 33.9928 101.797 34.2757C101.858 34.6996 101.885 35.1278 101.878 35.5561V39.3532H108.196V32.9955H110.09V44.4244Z" fill="white"/>
<path d="M124.172 44.4245C124.152 44.9472 124.241 45.4685 124.433 45.9546C124.607 46.3418 125.011 46.5354 125.645 46.5354H126.061V46.9601H124.197C123.883 46.961 123.57 46.9232 123.266 46.8477C123.02 46.7987 122.8 46.6637 122.644 46.4667C122.483 46.2366 122.379 45.9711 122.34 45.6923C122.278 45.2664 122.251 44.8361 122.259 44.4057V40.1714H115.96V46.9413H114.066V35.5373C114.087 35.0125 113.998 34.489 113.805 34.001C113.624 33.6138 113.227 33.4202 112.593 33.4202H112.171V32.9955H114.066C114.375 32.9894 114.683 33.0209 114.985 33.0892C115.217 33.1457 115.423 33.2801 115.569 33.4701C115.733 33.7037 115.84 33.9736 115.879 34.257C115.941 34.6809 115.968 35.1091 115.96 35.5373V39.3532H122.278V32.9955H124.141L124.172 44.4245Z" fill="white"/>
<path d="M126.739 39.9778C126.73 38.9933 126.883 38.0142 127.192 37.0799C127.468 36.2143 127.911 35.412 128.497 34.7192C129.063 34.0509 129.767 33.514 130.559 33.1454C131.411 32.7666 132.333 32.5709 133.264 32.5709C134.196 32.5709 135.118 32.7666 135.97 33.1454C136.761 33.5157 137.464 34.0524 138.032 34.7192C138.613 35.4152 139.056 36.2165 139.337 37.0799C139.941 38.9682 139.941 40.9998 139.337 42.8881C139.053 43.7465 138.61 44.5432 138.032 45.2364C137.465 45.9051 136.762 46.4439 135.97 46.8164C135.117 47.1911 134.196 47.3845 133.264 47.3845C132.333 47.3845 131.412 47.1911 130.559 46.8164C129.766 46.4454 129.063 45.9064 128.497 45.2364C127.914 44.5463 127.471 43.7486 127.192 42.8881C126.882 41.9499 126.729 40.9664 126.739 39.9778ZM137.684 39.9778C137.692 39.0632 137.59 38.151 137.38 37.261C137.208 36.5247 136.911 35.8235 136.504 35.1876C136.157 34.6421 135.681 34.1916 135.119 33.8761C134.544 33.5735 133.904 33.4154 133.255 33.4154C132.606 33.4154 131.967 33.5735 131.392 33.8761C130.829 34.1916 130.353 34.6421 130.006 35.1876C129.599 35.8235 129.303 36.5247 129.13 37.261C128.725 39.0513 128.725 40.9104 129.13 42.7007C129.305 43.4362 129.601 44.1371 130.006 44.7742C130.357 45.3167 130.832 45.7665 131.392 46.0857C131.968 46.3843 132.607 46.54 133.255 46.54C133.903 46.54 134.542 46.3843 135.119 46.0857C135.678 45.7665 136.153 45.3167 136.504 44.7742C136.909 44.1371 137.205 43.4362 137.38 42.7007C137.59 41.8087 137.692 40.8944 137.684 39.9778Z" fill="white"/>
<path d="M152.463 46.96H150.599V33.8447H144.232V46.96H142.337V35.5372C142.359 35.0118 142.268 34.4878 142.07 34.0009C141.896 33.6136 141.492 33.42 140.859 33.42H140.442V32.9954H152.463V46.96Z" fill="white"/>
<path d="M157.866 46.96H155.972V35.5372C155.993 35.0124 155.904 34.4889 155.711 34.0009C155.537 33.6136 155.123 33.42 154.468 33.42H154.046V32.9954H159.519C160.047 33.0023 160.574 33.044 161.097 33.1203C161.7 33.2066 162.284 33.3968 162.823 33.6824C163.407 33.9838 163.903 34.4312 164.265 34.9814C164.674 35.6633 164.871 36.4529 164.83 37.2484C164.843 37.7788 164.754 38.3068 164.569 38.8035C164.412 39.2061 164.18 39.5749 163.886 39.8902C163.615 40.1806 163.298 40.4233 162.948 40.6084C162.622 40.7885 162.276 40.9269 161.917 41.0206C161.599 41.1086 161.275 41.1733 160.947 41.2142C160.7 41.2464 160.451 41.2631 160.202 41.2642H157.866V46.96ZM159.444 40.5085C159.784 40.5014 160.121 40.4446 160.444 40.3399C160.832 40.2185 161.192 40.0235 161.507 39.7653C161.859 39.479 162.15 39.1243 162.364 38.7223C162.731 38.024 162.847 37.2191 162.691 36.4448C162.534 35.6704 162.116 34.9745 161.507 34.4755C161.192 34.2192 160.831 34.0262 160.444 33.9072C160.121 33.8025 159.784 33.7457 159.444 33.7386C159.168 33.7383 158.891 33.7592 158.618 33.801C158.365 33.8323 158.113 33.8802 157.866 33.9446V40.2962C158.114 40.3599 158.365 40.41 158.618 40.4461C158.892 40.4848 159.168 40.5057 159.444 40.5085Z" fill="white"/>
<path d="M177.863 46.96C177.59 47.0346 177.308 47.0704 177.025 47.0661C176.745 47.0635 176.467 47.0363 176.192 46.9849C175.85 46.9189 175.521 46.792 175.223 46.6102C174.857 46.3891 174.529 46.1084 174.254 45.7796C173.901 45.3444 173.627 44.8496 173.446 44.3182L172.918 42.9442H167.023L165.34 46.96H164.396L170.284 32.9954H170.906L175.546 44.3494C175.72 44.7429 175.875 45.0801 176.024 45.3549C176.149 45.602 176.315 45.8259 176.515 46.0169C176.685 46.1816 176.886 46.311 177.105 46.3979C177.348 46.4922 177.603 46.5491 177.863 46.5665V46.96ZM167.371 42.0948H172.527L170.005 35.9557L167.371 42.0948Z" fill="white"/>
<path d="M179.019 32.9955C179.328 32.9894 179.637 33.0209 179.939 33.0892C180.172 33.1471 180.379 33.2811 180.529 33.4701C180.694 33.7029 180.798 33.9734 180.833 34.257C180.894 34.6809 180.921 35.1091 180.914 35.5373V39.6593L185.337 35.2188C185.604 34.9503 185.859 34.688 186.107 34.4257C186.346 34.1673 186.606 33.9292 186.884 33.7137C187.162 33.5013 187.467 33.327 187.791 33.1953C188.149 33.0576 188.531 32.9897 188.915 32.9955H189.965V33.5263C189.441 33.5152 188.922 33.6196 188.443 33.8324C187.871 34.1343 187.355 34.5313 186.915 35.0065L182.809 39.1347L187.654 44.1934C188.205 44.7803 188.815 45.3077 189.474 45.7672C189.992 46.1591 190.594 46.4224 191.232 46.5354V46.9601C191.05 47.0237 190.863 47.0738 190.673 47.11C190.406 47.1565 190.136 47.1774 189.865 47.1724C189.557 47.1713 189.249 47.1399 188.946 47.0787C188.587 46.9984 188.24 46.8703 187.915 46.6978C187.497 46.4764 187.1 46.2172 186.728 45.9233C186.233 45.531 185.767 45.1008 185.337 44.6368L180.914 39.9778V46.9601H179.019V35.5373C179.04 35.0125 178.952 34.489 178.758 34.001C178.584 33.6138 178.181 33.4202 177.547 33.4202H177.131V32.9955H179.019Z" fill="white"/>
<path d="M201.711 32.9954V33.8385H196.977V46.9537H195.083V33.8385H193.188C192.489 33.7953 191.798 34.0034 191.237 34.4255C190.991 34.6661 190.801 34.9595 190.683 35.2839C190.565 35.6083 190.521 35.9553 190.554 36.2991H190.138V34.7128C190.136 34.5027 190.159 34.293 190.206 34.0883C190.254 33.8901 190.348 33.706 190.48 33.5512C190.63 33.3829 190.817 33.2524 191.026 33.1702C191.314 33.061 191.62 33.0101 191.927 33.0203L201.711 32.9954Z" fill="white"/>
<path d="M212.719 34.9003L205.979 46.9601H204.084V35.5373C204.105 35.0125 204.016 34.489 203.823 34.001C203.649 33.6138 203.235 33.4202 202.581 33.4202H202.158V32.9955H204.053C204.362 32.9894 204.671 33.0209 204.972 33.0892C205.205 33.1471 205.413 33.2811 205.562 33.4701C205.725 33.7043 205.829 33.9741 205.867 34.257C205.928 34.6809 205.955 35.1091 205.948 35.5373V45.0553L212.719 32.9955H214.582V46.9601H212.719V34.9003Z" fill="white"/>
<path d="M218.173 32.9954C218.48 32.9893 218.787 33.0207 219.086 33.089C219.32 33.1457 219.528 33.2799 219.676 33.47C219.841 33.7028 219.946 33.9732 219.981 34.2569C220.044 34.6806 220.073 35.1088 220.068 35.5372V39.6591L224.484 35.2187C224.751 34.9502 225.006 34.6878 225.255 34.4255C225.494 34.1672 225.753 33.9291 226.031 33.7136C226.309 33.5012 226.614 33.3269 226.938 33.1952C227.297 33.0575 227.678 32.9896 228.062 32.9954H229.119V33.5262C228.593 33.5145 228.071 33.619 227.59 33.8322C227.019 34.1342 226.502 34.5312 226.062 35.0064L221.962 39.1345L226.801 44.1933C227.353 44.7787 227.963 45.306 228.622 45.7671C229.139 46.159 229.741 46.4222 230.38 46.5353V46.96C230.197 47.0235 230.01 47.0736 229.82 47.1099C229.554 47.1566 229.283 47.1775 229.013 47.1723C228.704 47.1711 228.396 47.1398 228.094 47.0786C227.735 46.9973 227.388 46.8692 227.062 46.6977C226.645 46.4749 226.248 46.2158 225.876 45.9232C225.381 45.5292 224.916 45.0992 224.484 44.6367L220.068 39.9777V46.96H218.173V35.5372C218.195 35.0118 218.103 34.4878 217.906 34.0009C217.732 33.6137 217.328 33.42 216.701 33.42H216.278V32.9954H218.173Z" fill="white"/>
<path d="M240.542 34.9003L233.84 46.9601H231.914V35.5373C231.935 35.0125 231.846 34.489 231.653 34.001C231.479 33.6138 231.065 33.4202 230.411 33.4202H229.988V32.9955H231.852C232.161 32.9894 232.47 33.0209 232.771 33.0892C233.016 33.1406 233.235 33.2752 233.392 33.4701C233.555 33.7043 233.659 33.9741 233.697 34.257C233.758 34.6809 233.785 35.1091 233.778 35.5373V45.0553L240.511 32.9955H242.406V46.9601H240.511L240.542 34.9003Z" fill="white"/>
<path d="M259.365 34.9003L252.625 46.9601H250.762V35.5373C250.783 35.0125 250.694 34.489 250.501 34.001C250.327 33.6138 249.923 33.4202 249.29 33.4202H248.867V32.9955H250.762C251.071 32.9894 251.38 33.0209 251.681 33.0892C251.926 33.1406 252.145 33.2752 252.302 33.4701C252.465 33.7043 252.569 33.9741 252.607 34.257C252.668 34.6809 252.695 35.1091 252.688 35.5373V45.0553L259.428 32.9955H261.291V46.9601H259.428L259.365 34.9003Z" fill="white"/>
<path d="M87.7893 69.5307H85.8947V58.0892C85.9138 57.5639 85.8228 57.0405 85.6275 56.5529C85.4536 56.1656 85.0498 55.972 84.4162 55.972H84V55.5911H89.4728C90.0009 55.5982 90.5279 55.6399 91.0506 55.716C91.6536 55.8042 92.2375 55.9943 92.7776 56.2781C93.3372 56.5835 93.8131 57.0233 94.1628 57.5583C94.4774 58.1383 94.667 58.7784 94.7195 59.4369C94.7719 60.0954 94.686 60.7576 94.4672 61.3805C94.3102 61.7831 94.0783 62.1519 93.7839 62.4672C93.5131 62.759 93.1961 63.0038 92.8459 63.1917C92.5185 63.3673 92.1726 63.5056 91.8147 63.6038C91.4986 63.6893 91.1768 63.7519 90.8518 63.7912C90.6026 63.8248 90.3516 63.8436 90.1002 63.8474H87.7893V69.5307ZM89.3672 63.0855C89.7069 63.0779 90.0437 63.0211 90.3673 62.9169C90.7536 62.7927 91.1137 62.5979 91.4295 62.3423C91.7828 62.0585 92.0728 61.7031 92.2806 61.2993C92.6466 60.6011 92.7618 59.7973 92.6067 59.0236C92.4517 58.25 92.0359 57.5537 91.4295 57.0525C91.1135 56.7986 90.7533 56.6058 90.3673 56.4841C90.0437 56.3799 89.7069 56.3231 89.3672 56.3155C89.0885 56.3153 88.8103 56.3362 88.5348 56.378C88.2836 56.4134 88.0347 56.4634 87.7893 56.5279V62.8731C88.0347 62.9376 88.2836 62.9876 88.5348 63.023C88.8103 63.0649 89.0885 63.0857 89.3672 63.0855Z" fill="white"/>
<path d="M100.921 66.9951L97.0264 58.3203C96.9021 58.0205 96.7655 57.7395 96.6288 57.4709C96.4893 57.2096 96.316 56.9681 96.1132 56.7527C95.8965 56.532 95.6391 56.356 95.3554 56.2343C94.984 56.0826 94.5883 56.0001 94.1875 55.9908V55.5911H96.7096C97.0192 55.5863 97.3256 55.6547 97.6041 55.7909C97.8623 55.9244 98.0939 56.1043 98.2874 56.3218C98.4905 56.5489 98.6676 56.7982 98.8154 57.0649C98.9711 57.3425 99.1121 57.6281 99.2379 57.9206L102.077 64.2659L105.866 55.5911H107.108L101.934 67.5509C101.675 68.1959 101.245 68.7574 100.691 69.1747C100.08 69.6025 99.3486 69.8214 98.6042 69.7992H97.5544V69.1747C97.8706 69.1739 98.1862 69.1489 98.4986 69.0998C98.8129 69.0519 99.1211 68.9702 99.418 68.8562C99.6987 68.7448 99.9574 68.5841 100.182 68.3815C100.417 68.1623 100.598 67.8907 100.71 67.5884L100.921 66.9951Z" fill="white"/>
<path d="M118.98 60.0129C118.829 58.8613 118.308 57.791 117.495 56.9652C116.708 56.2914 115.695 55.9432 114.663 55.9909C113.999 55.9881 113.34 56.1066 112.718 56.3407C112.095 56.5804 111.542 56.9733 111.109 57.4835C110.6 58.092 110.228 58.8034 110.016 59.5695C109.724 60.6071 109.588 61.6828 109.612 62.7609C109.61 63.5463 109.706 64.3289 109.898 65.0904C110.069 65.8167 110.372 66.5049 110.793 67.1201C111.199 67.7136 111.735 68.2068 112.358 68.5628C113.066 68.9436 113.86 69.133 114.663 69.1124C115.623 69.1391 116.569 68.8735 117.377 68.3505C118.202 67.77 118.892 67.0182 119.402 66.1458L119.819 66.4644C119.524 67.0689 119.145 67.6283 118.694 68.1256C118.306 68.5517 117.856 68.916 117.359 69.2061C116.877 69.482 116.355 69.6781 115.812 69.7869C115.227 69.9022 114.632 69.9587 114.035 69.9555C113.102 69.9695 112.178 69.7776 111.327 69.3934C110.539 69.0368 109.836 68.5152 109.264 67.8633C108.685 67.1955 108.24 66.4215 107.954 65.5838C107.648 64.6767 107.495 63.7248 107.5 62.7671C107.494 61.7531 107.668 60.7463 108.016 59.7943C108.34 58.9105 108.815 58.0904 109.42 57.3711C109.993 56.6938 110.697 56.1394 111.488 55.7411C112.275 55.3367 113.145 55.1229 114.029 55.1166C115.053 55.0936 116.073 55.2631 117.036 55.6162C117.736 55.8527 118.367 56.2629 118.868 56.8091C119.159 57.2015 119.322 57.675 119.334 58.1643C119.371 58.7451 119.396 59.3509 119.396 59.9879L118.98 60.0129Z" fill="white"/>
<path d="M132.05 60.0128C131.902 58.8604 131.38 57.7892 130.565 56.9651C129.78 56.2922 128.77 55.9441 127.739 55.9908C127.073 55.9874 126.412 56.1059 125.788 56.3405C125.165 56.5802 124.612 56.9732 124.179 57.4834C123.672 58.0932 123.3 58.8042 123.086 59.5694C122.794 60.607 122.658 61.6827 122.682 62.7608C122.683 63.546 122.779 64.3282 122.968 65.0903C123.144 65.8147 123.447 66.5019 123.862 67.12C124.271 67.712 124.806 68.2049 125.428 68.5627C126.138 68.9443 126.934 69.1337 127.739 69.1123C128.699 69.137 129.645 68.8716 130.453 68.3503C131.276 67.7695 131.964 67.0177 132.472 66.1457L132.895 66.4643C132.596 67.0678 132.215 67.6269 131.764 68.1255C131.376 68.5515 130.926 68.9158 130.429 69.206C129.947 69.4818 129.425 69.678 128.882 69.7868C128.297 69.9024 127.701 69.9589 127.105 69.9554C126.172 69.9694 125.248 69.7775 124.397 69.3933C123.61 69.0352 122.907 68.5138 122.334 67.8632C121.757 67.193 121.314 66.4168 121.03 65.5774C120.724 64.6704 120.571 63.7185 120.576 62.7608C120.57 61.7468 120.745 60.7399 121.092 59.788C121.416 58.9042 121.891 58.0841 122.496 57.3648C123.071 56.6859 123.776 56.1314 124.571 55.7347C125.355 55.3298 126.223 55.1159 127.105 55.1102C128.13 55.0873 129.149 55.2567 130.112 55.6098C130.813 55.8463 131.443 56.2565 131.944 56.8027C132.235 57.1951 132.398 57.6686 132.41 58.1579C132.454 58.7387 132.472 59.3445 132.472 59.9816L132.05 60.0128Z" fill="white"/>
<path d="M135.374 55.5911C135.683 55.5851 135.992 55.6165 136.293 55.6848C136.527 55.7428 136.734 55.8767 136.883 56.0658C137.045 56.3005 137.149 56.57 137.188 56.8527C137.247 57.2662 137.274 57.6839 137.269 58.1017V62.2237L141.692 57.7832C141.959 57.5147 142.213 57.2524 142.462 56.9901C142.701 56.7317 142.961 56.4936 143.238 56.2781C143.516 56.0657 143.821 55.8914 144.145 55.7597C144.504 55.622 144.886 55.5542 145.27 55.5599H146.319V56.0907C145.796 56.0796 145.276 56.1841 144.798 56.3968C144.226 56.6988 143.709 57.0957 143.269 57.5709L139.163 61.6991L144.009 66.7641C144.559 67.349 145.169 67.8743 145.829 68.3316C146.348 68.7226 146.949 68.9876 147.587 69.1061V69.5245C147.404 69.5881 147.217 69.6382 147.028 69.6744C146.759 69.7211 146.486 69.7421 146.214 69.7368C145.907 69.7353 145.601 69.704 145.301 69.6432C144.941 69.5657 144.594 69.4375 144.27 69.2622C143.85 69.0432 143.453 68.7838 143.083 68.4878C142.586 68.0972 142.12 67.6669 141.692 67.2012L137.269 62.5422V69.5245H135.374V58.0893C135.395 57.5644 135.306 57.041 135.113 56.5529C134.939 56.1657 134.525 55.9721 133.871 55.9721H133.448V55.5911H135.374Z" fill="white"/>
<path d="M157.749 57.4647L151.016 69.5245H149.121V58.0892C149.142 57.5644 149.053 57.041 148.86 56.5529C148.737 56.3401 148.552 56.1703 148.33 56.0665C148.107 55.9626 147.859 55.9297 147.618 55.9721H147.195V55.5911H149.059C149.366 55.5844 149.673 55.6158 149.972 55.6848C150.207 55.7395 150.415 55.8741 150.562 56.0657C150.726 56.2991 150.831 56.5693 150.867 56.8527C150.929 57.266 150.958 57.6837 150.954 58.1017V67.6196L157.749 55.5911H159.613V69.5557H157.749V57.4647Z" fill="white"/>
<path d="M162.868 69.5306H161.812L167.074 62.6608L164.129 58.3265C163.943 58.0579 163.757 57.7894 163.558 57.5333C163.362 57.2671 163.137 57.024 162.887 56.8089C162.617 56.5822 162.316 56.397 161.992 56.2593C161.596 56.1011 161.176 56.0123 160.75 55.997V55.591H163.272C163.597 55.5865 163.918 55.6593 164.21 55.8034C164.499 55.9464 164.764 56.1316 164.999 56.353C165.231 56.5804 165.44 56.8316 165.62 57.1024C165.819 57.3772 166.005 57.652 166.192 57.9205L168.298 61.0932L172.559 55.591H173.615L168.875 61.8364L172.242 66.8327C172.429 67.1012 172.621 67.3635 172.832 67.6258C173.042 67.8863 173.275 68.1267 173.528 68.344C173.777 68.5611 174.053 68.7457 174.348 68.8936C174.645 69.043 174.968 69.1341 175.299 69.1622V69.5806H173.087C172.763 69.5835 172.442 69.513 172.149 69.3745C171.859 69.2316 171.593 69.0441 171.36 68.8187C171.118 68.5881 170.896 68.3374 170.695 68.0692C170.497 67.7944 170.31 67.5259 170.136 67.2573L167.589 63.3977L162.868 69.5306Z" fill="white"/>
<path d="M191.636 60.0129C191.49 58.8611 190.97 57.7899 190.157 56.9652C189.369 56.2936 188.357 55.9457 187.325 55.9909C186.659 55.988 185.998 56.1065 185.374 56.3406C184.745 56.5728 184.184 56.9592 183.741 57.4648C183.236 58.0763 182.864 58.7867 182.647 59.5507C182.357 60.5887 182.223 61.6644 182.25 62.7421C182.249 63.5271 182.343 64.3093 182.529 65.0716C182.706 65.7961 183.009 66.4833 183.424 67.1014C183.833 67.695 184.37 68.1881 184.995 68.544C185.703 68.9257 186.497 69.1151 187.3 69.0936C188.26 69.1184 189.206 68.853 190.015 68.3317C190.837 67.7509 191.526 66.999 192.034 66.1271L192.456 66.4456C192.159 67.0489 191.781 67.6079 191.332 68.1069C190.941 68.5301 190.491 68.894 189.996 69.1873C189.513 69.4642 188.989 69.6604 188.443 69.7681C187.858 69.8838 187.263 69.9403 186.666 69.9368C185.736 69.95 184.813 69.7582 183.964 69.3747C183.175 69.0198 182.472 68.4978 181.902 67.8446C181.336 67.1815 180.906 66.4134 180.635 65.5837C180.326 64.6775 180.172 63.725 180.181 62.7671C180.172 61.7529 180.346 60.7455 180.697 59.7943C181.016 58.9097 181.489 58.0892 182.094 57.3711C182.669 56.6922 183.375 56.1377 184.169 55.7411C184.954 55.3368 185.822 55.1229 186.704 55.1165C187.73 55.0937 188.752 55.2632 189.716 55.6162C190.415 55.8541 191.043 56.2642 191.543 56.809C191.834 57.2015 191.996 57.675 192.009 58.1643C192.052 58.7451 192.071 59.3509 192.071 59.9879L191.636 60.0129Z" fill="white"/>
<path d="M202.034 55.5912C202.339 55.5802 202.643 55.6312 202.928 55.7411C203.138 55.8239 203.325 55.9543 203.475 56.122C203.609 56.2759 203.702 56.4603 203.748 56.6591C203.798 56.8636 203.823 57.0732 203.823 57.2837V58.87H203.401C203.435 58.526 203.392 58.1786 203.274 57.854C203.155 57.5294 202.965 57.2361 202.717 56.9964C202.159 56.5759 201.469 56.3699 200.773 56.4156H196.859V61.9177H202.543V62.7608H196.859V68.7064H200.543C201.332 68.748 202.116 68.5639 202.804 68.1755C203.426 67.7362 203.889 67.1046 204.121 66.3769L204.537 66.4831L203.804 68.4941C203.702 68.8043 203.507 69.0749 203.245 69.2685C202.943 69.4672 202.587 69.5656 202.227 69.5495H194.965V58.0893C194.986 57.5639 194.895 57.0399 194.698 56.553C194.524 56.1658 194.12 55.9721 193.492 55.9721H193.058V55.5912H202.034Z" fill="white"/>
<path d="M208.116 62.0238H209.7C210.165 62.0339 210.628 61.9707 211.073 61.8364C211.484 61.7142 211.869 61.5174 212.21 61.2556C212.54 61.0023 212.809 60.6779 212.999 60.3063C213.205 59.8921 213.308 59.4331 213.297 58.9698C213.307 58.5173 213.214 58.0685 213.023 57.6583C212.851 57.3044 212.605 56.9915 212.303 56.7402C212.008 56.4899 211.666 56.3028 211.296 56.1906C210.921 56.0717 210.529 56.0106 210.135 56.0095C209.203 55.9821 208.293 56.3024 207.582 56.9088C206.85 57.5665 206.345 58.4415 206.141 59.407H205.718C205.718 58.7824 205.718 58.2391 205.78 57.8019C205.816 57.3833 205.976 56.9851 206.24 56.659C206.446 56.4116 206.692 56.2005 206.967 56.0345C207.284 55.8469 207.619 55.6921 207.967 55.5723C208.338 55.4432 208.718 55.343 209.104 55.2725C209.479 55.2043 209.859 55.1688 210.24 55.1664C210.802 55.1717 211.363 55.2176 211.918 55.3038C212.492 55.3892 213.047 55.5753 213.558 55.8534C214.063 56.1401 214.489 56.5476 214.8 57.04C215.154 57.6598 215.324 58.3683 215.291 59.0822C215.288 59.7865 215.034 60.4665 214.576 60.9995C213.968 61.6566 213.182 62.1211 212.315 62.336C212.887 62.4376 213.443 62.6161 213.968 62.8669C214.37 63.0642 214.734 63.3329 215.042 63.6601C215.311 63.9568 215.509 64.3114 215.62 64.6968C215.735 65.1029 215.792 65.5236 215.788 65.9458C215.819 66.6545 215.635 67.356 215.26 67.9568C214.923 68.477 214.464 68.9059 213.924 69.2059C213.37 69.5102 212.77 69.7212 212.148 69.8304C211.543 69.9392 210.93 69.9957 210.315 69.9991C209.339 70.0156 208.371 69.8218 207.476 69.4308C206.552 68.9739 205.782 68.2525 205.265 67.3573L205.687 67.0388C206.16 67.667 206.759 68.1884 207.445 68.5689C208.231 68.9836 209.111 69.1859 209.998 69.156C210.956 69.2031 211.901 68.9188 212.676 68.3503C213.009 68.079 213.274 67.7322 213.449 67.3382C213.624 66.9442 213.704 66.5141 213.682 66.0832C213.712 65.6371 213.638 65.19 213.466 64.7778C213.293 64.3657 213.027 63.9999 212.688 63.71C211.814 63.1015 210.76 62.8107 209.7 62.8856H208.116V62.0238Z" fill="white"/>
<path d="M217.105 62.5485C217.1 61.5643 217.253 60.5857 217.558 59.6506C217.842 58.7885 218.285 57.9876 218.863 57.2899C219.43 56.6231 220.134 56.0864 220.925 55.716C221.777 55.3373 222.699 55.1416 223.63 55.1416C224.562 55.1416 225.484 55.3373 226.336 55.716C227.128 56.0847 227.832 56.6216 228.398 57.2899C228.981 57.9845 229.424 58.7862 229.703 59.6506C230.307 61.5389 230.307 63.5705 229.703 65.4588C229.425 66.32 228.982 67.1179 228.398 67.807C227.834 68.479 227.13 69.0183 226.336 69.3871C225.483 69.7618 224.561 69.9552 223.63 69.9552C222.699 69.9552 221.778 69.7618 220.925 69.3871C220.132 69.0166 219.428 68.4775 218.863 67.807C218.283 67.1147 217.841 66.3178 217.558 65.4588C217.251 64.5198 217.098 63.5369 217.105 62.5485ZM228.05 62.5485C228.061 61.6337 227.959 60.7212 227.746 59.8317C227.574 59.0954 227.277 58.3942 226.87 57.7583C226.525 57.2115 226.048 56.7606 225.485 56.4467C224.91 56.1431 224.27 55.9845 223.621 55.9845C222.972 55.9845 222.332 56.1431 221.758 56.4467C221.192 56.7601 220.714 57.2111 220.366 57.7583C219.959 58.3942 219.662 59.0954 219.49 59.8317C219.084 61.622 219.084 63.4811 219.49 65.2714C219.663 66.0074 219.96 66.7084 220.366 67.3449C220.717 67.8891 221.195 68.3392 221.758 68.6564C222.332 68.96 222.972 69.1186 223.621 69.1186C224.27 69.1186 224.91 68.96 225.485 68.6564C226.046 68.339 226.521 67.8888 226.87 67.3449C227.276 66.7084 227.572 66.0074 227.746 65.2714C227.959 64.3799 228.061 63.4653 228.05 62.5485Z" fill="white"/>
<path d="M242.387 66.9952C242.367 67.518 242.456 68.0392 242.648 68.5253C242.822 68.9188 243.226 69.1124 243.859 69.1124H244.282V69.5308H242.387C242.078 69.5369 241.769 69.5054 241.468 69.4371C241.234 69.3814 241.025 69.247 240.878 69.0562C240.717 68.8279 240.613 68.5646 240.573 68.288C240.511 67.86 240.484 67.4276 240.492 66.9952V62.7609H234.175V69.5308H232.28V58.0893C232.301 57.5645 232.212 57.041 232.019 56.553C231.845 56.1658 231.431 55.9721 230.777 55.9721H230.354V55.5912H232.249C232.558 55.5851 232.867 55.6166 233.169 55.6849C233.402 55.7428 233.609 55.8768 233.759 56.0658C233.92 56.3006 234.024 56.5701 234.063 56.8527C234.123 57.2663 234.15 57.684 234.144 58.1018V61.9115H240.461V55.5912H242.325L242.387 66.9952Z" fill="white"/>
<path d="M244.53 62.5485C244.522 61.564 244.675 60.585 244.983 59.6506C245.267 58.7885 245.71 57.9876 246.288 57.2899C246.854 56.6238 247.555 56.0872 248.344 55.716C249.196 55.3373 250.118 55.1416 251.049 55.1416C251.981 55.1416 252.903 55.3373 253.755 55.716C254.547 56.0847 255.251 56.6216 255.817 57.2899C256.4 57.9845 256.843 58.7862 257.122 59.6506C257.727 61.5389 257.727 63.5705 257.122 65.4588C256.844 66.32 256.401 67.1179 255.817 67.807C255.253 68.479 254.549 69.0183 253.755 69.3871C252.902 69.7618 251.981 69.9552 251.049 69.9552C250.118 69.9552 249.197 69.7618 248.344 69.3871C247.551 69.0166 246.847 68.4775 246.282 67.807C245.702 67.1147 245.26 66.3178 244.977 65.4588C244.669 64.5202 244.518 63.5368 244.53 62.5485ZM255.475 62.5485C255.486 61.6337 255.384 60.7212 255.171 59.8317C254.999 59.0954 254.703 58.3942 254.295 57.7583C253.948 57.2128 253.472 56.7623 252.91 56.4467C252.335 56.1442 251.695 55.9861 251.046 55.9861C250.397 55.9861 249.758 56.1442 249.183 56.4467C248.62 56.7623 248.144 57.2128 247.797 57.7583C247.39 58.3942 247.094 59.0954 246.922 59.8317C246.516 61.622 246.516 63.4811 246.922 65.2714C247.095 66.0074 247.391 66.7084 247.797 67.3449C248.148 67.8874 248.623 68.3372 249.183 68.6564C249.758 68.959 250.397 69.117 251.046 69.117C251.695 69.117 252.335 68.959 252.91 68.6564C253.47 68.3372 253.945 67.8874 254.295 67.3449C254.704 66.7089 255.002 66.0078 255.177 65.2714C255.388 64.3797 255.489 63.465 255.475 62.5485Z" fill="white"/>
<path d="M263.707 55.5911C264.316 55.5939 264.923 55.6335 265.527 55.7097C266.171 55.776 266.801 55.9469 267.391 56.2156C267.952 56.4695 268.444 56.855 268.826 57.3398C269.236 57.9053 269.44 58.5956 269.403 59.2946C269.408 59.9385 269.188 60.5637 268.782 61.062C268.223 61.6846 267.499 62.135 266.695 62.361C267.279 62.4471 267.849 62.6087 268.391 62.8419C268.79 63.0144 269.151 63.2649 269.453 63.5789C269.714 63.8592 269.905 64.1972 270.012 64.5656C270.119 64.9519 270.172 65.3513 270.168 65.7522C270.198 66.4382 270.011 67.1161 269.633 67.6883C269.28 68.1829 268.811 68.582 268.267 68.85C267.679 69.1353 267.05 69.3251 266.403 69.412C265.734 69.5085 265.06 69.5565 264.384 69.5557H260.148V58.0892C260.169 57.5644 260.08 57.0409 259.887 56.5529C259.765 56.3456 259.585 56.1796 259.369 56.0761C259.154 55.9726 258.912 55.9363 258.675 55.972H258.253V55.5911H263.707ZM264.024 62.0488C264.445 62.0498 264.863 61.9888 265.266 61.8676C265.655 61.7541 266.019 61.57 266.341 61.3243C266.657 61.0886 266.918 60.7858 267.105 60.4375C267.311 60.0544 267.414 59.6238 267.403 59.1884C267.418 58.7286 267.292 58.2753 267.043 57.8893C266.808 57.532 266.501 57.2278 266.142 56.9963C265.759 56.7591 265.339 56.5881 264.9 56.4904C264.472 56.3876 264.035 56.3352 263.595 56.3343C263.317 56.334 263.038 56.3549 262.763 56.3967C262.512 56.4334 262.263 56.4834 262.017 56.5466V62.0488H264.024ZM262.011 62.8669V68.4877C262.338 68.5883 262.673 68.6635 263.011 68.7126C263.342 68.7616 263.677 68.7867 264.011 68.7875C265.052 68.8517 266.087 68.5851 266.968 68.0256C267.312 67.7749 267.587 67.4418 267.769 67.0567C267.951 66.6717 268.035 66.2468 268.012 65.821C268.034 65.3993 267.953 64.9787 267.777 64.5955C267.6 64.2124 267.334 63.8784 266.999 63.6226C266.109 63.0566 265.063 62.7898 264.011 62.8607L262.011 62.8669Z" fill="white"/>
<path d="M76.8886 42.5161C76.8886 42.4703 74.8745 37.8971 74.1963 34.2767C73.0602 28.1721 72.3861 27.3523 70.9088 25.538L70.5718 25.1219C69.0706 23.3508 67.2315 21.8965 65.1621 20.844C65.8612 21.0771 66.5561 21.3268 67.2427 21.6014C67.3532 21.6439 67.4744 21.6499 67.5885 21.6184C67.7027 21.587 67.8037 21.5197 67.8768 21.4266C67.9499 21.3335 67.9912 21.2194 67.9947 21.101C67.9981 20.9827 67.9636 20.8664 67.896 20.7691C64.8541 16.6078 59.6775 11.6143 52.0082 10.8652C54.0306 8.74297 55.4412 5.13928 54.1471 0.416196C54.1182 0.302388 54.0538 0.200731 53.9633 0.125925C53.8727 0.0511188 53.7608 0.0070408 53.6436 6.50204e-05H53.6186C53.5066 -0.00165804 53.3967 0.0309017 53.3038 0.0933788C53.2108 0.155856 53.1392 0.245264 53.0984 0.349615C51.7418 3.76605 47.5805 5.29741 43.1737 6.92448C36.6738 9.32971 29.3124 12.047 30.7273 21.6805C28.2305 24.4269 24.993 28.1055 24.9597 28.1471C24.8767 28.2427 24.829 28.3637 24.8244 28.4902C24.8199 28.6166 24.8588 28.7408 24.9347 28.8421C25.0118 28.943 25.1209 29.0148 25.2441 29.0458C25.3673 29.0768 25.4973 29.0651 25.613 29.0127C28.3424 27.7983 31.1958 26.8843 34.1229 26.287C37.2938 28.3677 42.537 27.4605 45.4624 26.7032C47.3755 30.0471 48.7449 33.6739 49.5197 37.4476L49.5488 37.6724C49.8686 40.2785 49.8322 42.916 49.4406 45.5123C47.9509 48.7123 44.9964 49.7734 42.7826 50.0897C36.9567 50.922 29.2916 47.9591 25.3051 43.3109C23.2022 40.938 21.6935 38.0992 20.9035 35.0286C20.1134 31.958 20.0645 28.7435 20.7609 25.6503C22.3672 18.3306 27.7228 11.9097 35.08 8.5349C38.8252 6.82044 43.4941 4.34031 44.497 2.25133C44.5287 2.18553 44.5471 2.11411 44.5511 2.04117C44.5551 1.96824 44.5446 1.89524 44.5202 1.82638C44.4958 1.75752 44.4581 1.69417 44.4091 1.63998C44.3601 1.58578 44.3009 1.54182 44.2349 1.51062C44.161 1.47453 44.0798 1.45601 43.9977 1.45652C43.8935 1.45628 43.7914 1.48544 43.703 1.54065C43.6147 1.59586 43.5437 1.67488 43.4983 1.76862C43.232 2.32623 40.5604 2.87137 38.4174 3.31246C37.169 3.5663 35.8956 3.82847 34.6222 4.14472C21.5807 7.44464 17.977 12.0512 14.8061 16.1126L14.6521 16.3041C9.32567 23.1244 7.34073 32.3917 9.35064 41.1054C10.6825 47.1436 14.0482 52.541 18.8842 56.3941C10.4243 52.0996 6.8164 44.7424 6.99118 32.7412C7.07856 27.1026 9.20915 21.0396 9.87912 19.8745C9.95251 19.747 9.97226 19.5956 9.93402 19.4535C9.89579 19.3115 9.80269 19.1905 9.67522 19.1171C9.54775 19.0437 9.39634 19.024 9.25431 19.0622C9.11228 19.1004 8.99125 19.1935 8.91786 19.321C8.55167 19.9535 8.0315 20.6859 7.42395 21.5348C4.80233 25.2134 0.832446 30.7771 0.0459596 40.8017C-0.295267 45.3208 1.29435 51.4629 3.79113 55.4037C7.81512 61.7039 15.501 65.3409 22.9082 66.2231C22.6335 66.2231 22.363 66.2231 22.0759 66.2231C16.1793 66.2231 5.67204 63.023 3.23352 58.6037C3.16233 58.4751 3.04299 58.3801 2.90174 58.3395C2.76048 58.299 2.6089 58.3161 2.48032 58.3873C2.35175 58.4585 2.25672 58.5779 2.21614 58.7191C2.17556 58.8604 2.19275 59.012 2.26394 59.1405C4.89804 63.9094 8.79302 69.2691 17.8938 73.0934C22.4308 74.8875 27.2593 75.8312 32.1379 75.8773C33.6038 75.8962 35.0673 75.7567 36.5032 75.4612C35.1882 76.6263 33.79 77.7915 32.2836 79.0149C32.1868 79.0915 32.1189 79.1986 32.0909 79.3188C32.063 79.439 32.0766 79.5651 32.1296 79.6766C32.1742 79.7725 32.2453 79.8537 32.3345 79.9105C32.4237 79.9672 32.5274 79.9973 32.6331 79.997C32.6663 80.001 32.6998 80.001 32.733 79.997C40.3232 78.5613 53.0235 76.1603 57.8839 65.9318C58.5088 64.5012 59.0412 63.0321 59.4777 61.5333C59.5826 65.8353 59.135 70.1329 58.1461 74.321C58.1218 74.4332 58.1328 74.5502 58.1775 74.6559C58.2221 74.7617 58.2984 74.8511 58.3958 74.9119C58.4837 74.9652 58.5843 74.9939 58.6871 74.9951C58.8157 74.9949 58.9405 74.9509 59.0408 74.8703C67.6297 67.8168 72.8313 57.9088 72.6233 48.9994C72.4097 44.8381 71.6384 41.2469 70.3096 38.2258C70.4885 38.4672 70.6675 38.7335 70.8547 39.0165C71.8243 40.4812 73.1559 42.4828 76.2436 43.2818C76.2892 43.2878 76.3354 43.2878 76.3809 43.2818C76.4602 43.2804 76.5382 43.2622 76.6099 43.2285C76.6816 43.1948 76.7454 43.1463 76.7971 43.0862C76.8637 43.0091 76.9076 42.9149 76.9238 42.8142C76.94 42.7135 76.9278 42.6103 76.8886 42.5161ZM69.7104 25.821L70.0516 26.2371C71.404 27.9016 72.024 28.634 73.106 34.4557C73.5954 36.7651 74.2846 39.0277 75.1658 41.2178L60.8343 20.0617C64.3256 21.5223 67.5423 23.166 69.7104 25.821ZM65.4742 33.0616C67.3305 34.8917 68.7612 37.108 69.6646 39.5533L58.4707 44.0475C58.4707 43.9975 58.4374 43.9476 58.4249 43.8977L58.7745 28.867C61.2041 29.9309 63.462 31.3502 65.4742 33.0783V33.0616ZM60.3017 57.7465C60.2642 57.3928 60.2309 57.0973 60.2143 56.8601V56.598L71.0337 53.6268L59.7981 71.8741C61.0507 64.7125 60.5555 60.1018 60.3017 57.7631V57.7465ZM51.0802 72.3027L39.1747 74.5082C39.3869 74.3085 39.5908 74.0921 39.7947 73.9007L40.0403 73.6718C43.644 70.0223 46.4528 65.9734 48.6334 59.9104C48.9538 59.0199 49.2451 58.1668 49.5197 57.3262L51.6004 71.9199C51.4298 72.0447 51.255 72.1737 51.0802 72.3027ZM29.766 48.6707L40.1276 60.6927C38.5992 61.7896 36.9638 62.7292 35.2464 63.4974L24.7766 59.1114L29.766 48.6707ZM44.8216 57.967C47.8018 54.6121 49.7661 50.4785 50.4851 46.0491C50.4061 50.7389 49.32 54.7129 47.5722 59.5275C47.0534 60.9657 46.4561 62.3744 45.7829 63.7471L34.385 65.0537C38.3696 63.5389 41.9439 61.1119 44.8216 57.967ZM50.5892 36.9899C50.5434 36.7985 50.5018 36.6112 50.4602 36.424L57.343 44.0766C57.4262 44.3388 57.5011 44.6009 57.576 44.8631L50.5018 54.018C51.2334 51.2378 51.6027 48.3746 51.6004 45.4998C51.5303 42.6918 51.1945 39.8968 50.5975 37.1522L50.5892 36.9899ZM50.0981 55.4286L57.7549 45.5123C58.6289 48.5715 59.0838 51.7352 59.1074 54.9168C59.1074 55.3329 59.1074 55.7491 59.1074 56.1111L49.9525 55.9155C50.0066 55.7532 50.0524 55.5909 50.0981 55.4286ZM60.2018 56.057C60.2018 55.6908 60.2018 55.3121 60.2018 54.9168C60.1815 51.6803 59.7266 48.4612 58.8494 45.3458L70.9171 53.0942L60.2018 56.057ZM57.9131 42.3746C55.6701 36.1327 51.9416 30.4608 47.4141 26.724C47.8302 26.724 48.2214 26.7531 48.5252 26.7531C51.8536 26.7426 55.1519 27.3844 58.2335 28.6423L57.9131 42.3746ZM59.3737 19.4625V19.4875C59.3718 19.5068 59.3718 19.5263 59.3737 19.5457L58.5747 27.4522L51.7627 15.5092L59.3737 19.4625ZM65.8112 19.9161C63.8104 19.2333 61.7539 18.7265 59.665 18.4014L45.8328 11.7058L50.9013 11.918C57.7799 12.2218 62.6736 16.1334 65.8112 19.9161ZM43.5607 7.9648C47.6013 6.47089 51.4464 5.05189 53.3856 2.17227C53.9681 5.85502 52.7073 8.63477 51.0386 10.2785C51.0018 10.308 50.967 10.34 50.9346 10.3742L50.8721 10.4325C50.3437 10.8153 40.6853 10.7737 37.0608 10.7446C38.9833 9.65429 41.2512 8.81787 43.5607 7.9648ZM34.5598 25.2509C34.4391 25.1654 34.2896 25.131 34.1437 25.1552C31.8269 25.5855 29.5559 26.2334 27.3608 27.0902C28.5717 25.7169 30.2737 23.7986 31.7176 22.2339C31.7744 22.1717 31.8166 22.0975 31.8411 22.0169C31.8656 21.9363 31.8717 21.8512 31.8591 21.7678C30.9853 16.3582 32.9619 13.3787 36.1494 11.298L44.3971 11.6434L50.8638 15.0016L57.8715 27.2816C54.88 26.1745 51.7149 25.6108 48.5252 25.6171C48.2297 25.6171 47.8469 25.6171 47.4432 25.5838C46.9772 25.5838 46.4736 25.5505 46.0284 25.5505H45.7454C45.5998 25.5505 45.4583 25.5505 45.3293 25.5505H45.2336C43.0031 26.1996 37.4769 27.3315 34.5598 25.2509ZM56.8686 42.7533L50.1564 35.2879C49.5311 32.9009 48.6783 30.5794 47.6097 28.3552C51.6004 31.9547 54.8462 37.1272 56.8686 42.7533ZM42.9282 51.2049C45.1653 50.9505 47.2492 49.9422 48.8373 48.3461C47.9235 51.6415 46.2664 54.6837 43.9935 57.2388C43.1349 58.1956 42.1997 59.0808 41.1971 59.8854L42.4039 51.2507C42.5703 51.2341 42.7534 51.2049 42.9282 51.2049ZM41.8379 51.3173L40.5729 60.3598L30.5026 48.7081C34.0896 50.5433 38.2259 51.5545 41.8379 51.309V51.3173ZM29.0919 47.8759L29.3832 48.2171L24.4645 58.5247L22.1758 40.914C22.8414 42.0197 23.6001 43.0666 24.4437 44.0433C25.7824 45.5568 27.351 46.8501 29.0919 47.8759ZM21.4184 39.5533L12.2261 44.7549L19.3003 27.627C18.8079 31.7245 19.5452 35.8759 21.4184 39.5533ZM19.8205 24.8639L11.7975 23.9484L24.4395 15.4968C22.2492 18.2476 20.6741 21.4361 19.8205 24.8472V24.8639ZM26.0624 13.6283L22.4712 10.1869L22.775 9.99552L32.4292 8.6639C30.0708 9.99679 27.9213 11.6695 26.05 13.6283H26.0624ZM34.8927 5.22666C36.1411 4.91041 37.4103 4.6524 38.6379 4.3944C39.7198 4.17385 40.6478 3.97827 41.426 3.78685C39.272 5.23432 36.9938 6.48764 34.6181 7.53203C34.3476 7.65687 34.0896 7.79003 33.8233 7.92319L23.9859 9.27561C26.6325 7.815 30.0739 6.44593 34.8927 5.22666ZM15.526 16.999L15.68 16.8034C17.3445 14.6811 19.009 12.5256 22.0052 10.4949L25.6754 14.0153L11.9223 23.1702C12.8439 20.9621 14.0558 18.8867 15.526 16.999ZM11.4355 24.4311L19.654 25.3674L11.6518 44.7341C11.1563 43.4722 10.7529 42.176 10.4451 40.8558C9.18987 35.3995 9.53372 29.697 11.4355 24.4311ZM11.9515 45.5123L21.5225 40.1026L23.8819 58.2791C18.5317 55.5533 14.3091 51.0346 11.9515 45.5123ZM22.7708 59.2029L12.9002 61.8204L11.6976 52.2785C14.3775 55.3205 18.0394 57.5925 22.7584 59.2029H22.7708ZM8.73892 47.8759L1.28187 39.6032L6.18805 38.979C6.52573 42.0682 7.38842 45.0771 8.73892 47.8759ZM5.90508 32.7287C5.86732 34.6351 5.94932 36.542 6.15059 38.438L1.34429 39.0456C2.00173 33.4549 4.07102 28.1234 7.35737 23.553C6.48077 26.5357 5.98579 29.6174 5.88427 32.7246L5.90508 32.7287ZM4.75656 54.8128C2.35548 51.0676 0.849091 45.196 1.17367 40.889C1.17367 40.6976 1.21113 40.5187 1.22777 40.3273L10.0331 50.1188C10.3535 50.5974 10.6947 51.0634 11.0568 51.5129L12.3468 61.733C9.27546 60.0908 6.66015 57.7114 4.73575 54.8086L4.75656 54.8128ZM13.3164 62.2615L23.7196 59.5275L24.0775 59.6399C24.2157 59.6827 24.3653 59.6692 24.4936 59.6024L34.539 63.8012C33.765 64.1258 32.966 64.4129 32.1546 64.6751C26.5784 66.1066 19.3253 65.2785 13.3164 62.2615ZM31.572 66.0067L27.8809 74.4791L27.5439 74.4375L11.4812 65.3159C15.1848 66.6226 19.2004 67.3633 22.0967 67.3633C25.3068 67.3644 28.501 66.9118 31.5845 66.0192L31.572 66.0067ZM5.85514 62.7401L26.0333 74.2169C23.3858 73.796 20.7948 73.0756 18.3099 72.0697C12.068 69.4398 8.40602 66.1607 5.86763 62.7525L5.85514 62.7401ZM38.8709 73.2224C37.3437 74.6372 33.1075 75.0326 28.4219 74.5332L32.2461 65.8361L45.4999 64.3172C43.7908 67.6157 41.5592 70.6159 38.8917 73.2016L38.8709 73.2224ZM38.4548 75.1782L50.0024 73.0393C45.2211 76.1353 39.3328 77.5501 34.6763 78.474C36.0163 77.3754 37.273 76.2893 38.4548 75.1907V75.1782ZM56.8727 65.4574C55.7455 67.8004 54.1142 69.8651 52.0956 71.5038L49.9358 56.3608L59.0907 56.5605C58.97 59.5483 58.4956 61.6331 56.8727 65.4699V65.4574ZM59.9979 72.5316L70.8672 54.9085C69.4108 61.1588 65.5574 67.4673 59.9979 72.5482V72.5316ZM71.2833 52.678L58.6288 44.5468L69.8643 40.0443C70.8572 42.9382 71.418 45.9627 71.5289 49.0202C71.5442 50.2496 71.4621 51.4783 71.2833 52.6947V52.678ZM71.7785 38.3798C71.5455 38.0302 71.325 37.6973 71.0919 37.3936C69.6356 35.5013 67.9842 33.7676 66.1649 32.221C66.0276 32.0879 65.8903 31.9506 65.7488 31.8257H65.6614C63.6697 30.181 61.4581 28.8224 59.0907 27.7893L59.8647 20.1533L74.6124 41.4134C73.2392 40.5894 72.4735 39.4451 71.7785 38.3964V38.3798Z" fill="url(#paint0_linear)"/>
<path d="M38.8505 19.1295C38.7607 19.0693 38.6549 19.0374 38.5467 19.038C38.455 19.0377 38.3647 19.0604 38.284 19.104C38.2033 19.1477 38.1349 19.2108 38.0848 19.2876C37.9163 19.5919 37.6884 19.8591 37.4146 20.0736C37.1408 20.288 36.8268 20.4453 36.4911 20.536C36.0002 20.6161 35.497 20.514 35.0762 20.2489C35.0169 20.2068 34.9499 20.1768 34.879 20.1607C34.8082 20.1445 34.7348 20.1424 34.6631 20.1546C34.5914 20.1668 34.5228 20.1929 34.4613 20.2316C34.3997 20.2703 34.3464 20.3207 34.3043 20.38C34.2622 20.4393 34.2322 20.5063 34.216 20.5772C34.1999 20.648 34.1978 20.7214 34.21 20.7931C34.2221 20.8648 34.2483 20.9334 34.287 20.9949C34.3257 21.0565 34.3761 21.1098 34.4354 21.1519C34.9502 21.4838 35.5498 21.66 36.1623 21.6596C36.3367 21.6604 36.5109 21.645 36.6825 21.6138C37.1683 21.5005 37.6256 21.2882 38.0258 20.9904C38.426 20.6926 38.7605 20.3155 39.0086 19.8827C39.0852 19.7612 39.1114 19.6147 39.0819 19.4741C39.0524 19.3336 38.9694 19.21 38.8505 19.1295Z" fill="#B4200A"/>
<defs>
<linearGradient id="paint0_linear" x1="0.000185233" y1="40.011" x2="76.9386" y2="40.011" gradientUnits="userSpaceOnUse">
<stop stop-color="#F18A00"/>
<stop offset="0.52" stop-color="#AE0F0A"/>
<stop offset="0.73" stop-color="#E30613"/>
<stop offset="0.97" stop-color="#5A0A00"/>
</linearGradient>
</defs>
</svg>
