<svg width="15" height="15" viewBox="0 0 15 15" fill="none" xmlns="http://www.w3.org/2000/svg">
<path d="M0.181824 14.8182C0.424255 15.0606 0.817245 15.0606 1.05905 14.8182L13.7504 2.12678V6.87268C13.7504 7.21758 14.0303 7.49746 14.3752 7.49746C14.7201 7.49746 14.9999 7.21753 14.9999 6.87268V0.624775C14.9999 0.459207 14.9356 0.299248 14.8181 0.181824C14.7006 0.0643991 14.5407 0 14.3752 0L8.12727 0C7.78237 0 7.50249 0.279928 7.50249 0.624775C7.50249 0.969622 7.78242 1.24955 8.12727 1.24955L12.8732 1.24955L0.181824 13.9409C-0.0606079 14.1834 -0.0606079 14.5764 0.181824 14.8182Z" fill="white"/>
</svg>
