<svg width="20" height="20" viewBox="0 0 20 20" fill="none" xmlns="http://www.w3.org/2000/svg">
<path d="M10.0047 4.86475C7.16888 4.86475 4.87305 7.16308 4.87305 9.99641C4.87305 12.8322 7.17138 15.1281 10.0047 15.1281C12.8405 15.1281 15.1364 12.8297 15.1364 9.99641C15.1364 7.16058 12.838 4.86475 10.0047 4.86475V4.86475ZM10.0047 13.3272C8.16388 13.3272 6.67388 11.8364 6.67388 9.99641C6.67388 8.15641 8.16471 6.66558 10.0047 6.66558C11.8447 6.66558 13.3355 8.15641 13.3355 9.99641C13.3364 11.8364 11.8455 13.3272 10.0047 13.3272V13.3272Z" fill="white"/>
<path d="M14.1235 0.0628222C12.2835 -0.0230111 7.72602 -0.0188445 5.88436 0.0628222C4.26602 0.138656 2.83852 0.529489 1.68769 1.68032C-0.235644 3.60366 0.0101894 6.19532 0.0101894 9.99616C0.0101894 13.8862 -0.206477 16.4178 1.68769 18.312C3.61852 20.242 6.24769 19.9895 10.0035 19.9895C13.8569 19.9895 15.1869 19.992 16.5494 19.4645C18.4019 18.7453 19.8002 17.0895 19.9369 14.1153C20.0235 12.2745 20.0185 7.71782 19.9369 5.87616C19.7719 2.36532 17.8877 0.236156 14.1235 0.0628222V0.0628222ZM17.036 17.0395C15.7752 18.3003 14.026 18.1878 9.97936 18.1878C5.81269 18.1878 4.14186 18.2495 2.92269 17.027C1.51852 15.6295 1.77269 13.3853 1.77269 9.98282C1.77269 5.37866 1.30019 2.06282 5.92102 1.82616C6.98269 1.78866 7.29519 1.77616 9.96769 1.77616L10.0052 1.80116C14.446 1.80116 17.9302 1.33616 18.1394 5.95616C18.1869 7.01032 18.1977 7.32699 18.1977 9.99532C18.1969 14.1137 18.2752 15.7945 17.036 17.0395V17.0395Z" fill="white"/>
<path d="M15.3398 5.86122C16.0021 5.86122 16.539 5.32433 16.539 4.66205C16.539 3.99977 16.0021 3.46289 15.3398 3.46289C14.6775 3.46289 14.1406 3.99977 14.1406 4.66205C14.1406 5.32433 14.6775 5.86122 15.3398 5.86122Z" fill="white"/>
</svg>
