<svg width="252" height="80" viewBox="0 0 252 80" fill="none" xmlns="http://www.w3.org/2000/svg">
<path d="M76.8886 42.5161C76.8886 42.4703 74.8745 37.8971 74.1963 34.2767C73.0602 28.1721 72.3861 27.3523 70.9088 25.538L70.5718 25.1219C69.0706 23.3508 67.2315 21.8965 65.1621 20.844C65.8612 21.0771 66.5561 21.3268 67.2427 21.6014C67.3532 21.6439 67.4744 21.6499 67.5885 21.6184C67.7027 21.587 67.8037 21.5197 67.8768 21.4266C67.9499 21.3335 67.9912 21.2194 67.9947 21.101C67.9981 20.9827 67.9636 20.8664 67.896 20.7691C64.8541 16.6078 59.6775 11.6143 52.0082 10.8652C54.0306 8.74297 55.4412 5.13928 54.1471 0.416196C54.1182 0.302388 54.0538 0.200731 53.9633 0.125925C53.8727 0.0511188 53.7608 0.0070408 53.6436 6.50204e-05H53.6186C53.5066 -0.00165804 53.3967 0.0309017 53.3038 0.0933788C53.2108 0.155856 53.1392 0.245264 53.0984 0.349615C51.7418 3.76605 47.5805 5.29741 43.1737 6.92448C36.6738 9.32971 29.3124 12.047 30.7273 21.6805C28.2305 24.4269 24.993 28.1055 24.9597 28.1471C24.8767 28.2427 24.829 28.3637 24.8244 28.4902C24.8199 28.6166 24.8588 28.7408 24.9347 28.8421C25.0118 28.943 25.1209 29.0148 25.2441 29.0458C25.3673 29.0768 25.4973 29.0651 25.613 29.0127C28.3424 27.7983 31.1958 26.8843 34.1229 26.287C37.2938 28.3677 42.537 27.4605 45.4624 26.7032C47.3755 30.0471 48.7449 33.6739 49.5197 37.4476L49.5488 37.6724C49.8686 40.2785 49.8322 42.916 49.4406 45.5123C47.9509 48.7123 44.9964 49.7734 42.7826 50.0897C36.9567 50.922 29.2916 47.9591 25.3051 43.3109C23.2022 40.938 21.6935 38.0992 20.9035 35.0286C20.1134 31.958 20.0645 28.7435 20.7609 25.6503C22.3672 18.3306 27.7228 11.9097 35.08 8.5349C38.8252 6.82044 43.4941 4.34031 44.497 2.25133C44.5287 2.18553 44.5471 2.11411 44.5511 2.04117C44.5551 1.96824 44.5446 1.89524 44.5202 1.82638C44.4958 1.75752 44.4581 1.69417 44.4091 1.63998C44.3601 1.58578 44.3009 1.54182 44.2349 1.51062C44.161 1.47453 44.0798 1.45601 43.9977 1.45652C43.8935 1.45628 43.7914 1.48544 43.703 1.54065C43.6147 1.59586 43.5437 1.67488 43.4983 1.76862C43.232 2.32623 40.5604 2.87137 38.4174 3.31246C37.169 3.5663 35.8956 3.82847 34.6222 4.14472C21.5807 7.44464 17.977 12.0512 14.8061 16.1126L14.6521 16.3041C9.32567 23.1244 7.34073 32.3917 9.35064 41.1054C10.6825 47.1436 14.0482 52.541 18.8842 56.3941C10.4243 52.0996 6.8164 44.7424 6.99118 32.7412C7.07856 27.1026 9.20915 21.0396 9.87912 19.8745C9.95251 19.747 9.97226 19.5956 9.93402 19.4535C9.89579 19.3115 9.80269 19.1905 9.67522 19.1171C9.54775 19.0437 9.39634 19.024 9.25431 19.0622C9.11228 19.1004 8.99125 19.1935 8.91786 19.321C8.55167 19.9535 8.0315 20.6859 7.42395 21.5348C4.80233 25.2134 0.832446 30.7771 0.0459596 40.8017C-0.295267 45.3208 1.29435 51.4629 3.79113 55.4037C7.81512 61.7039 15.501 65.3409 22.9082 66.2231C22.6335 66.2231 22.363 66.2231 22.0759 66.2231C16.1793 66.2231 5.67204 63.023 3.23352 58.6037C3.16233 58.4751 3.04299 58.3801 2.90174 58.3395C2.76048 58.299 2.6089 58.3161 2.48032 58.3873C2.35175 58.4585 2.25672 58.5779 2.21614 58.7191C2.17556 58.8604 2.19275 59.012 2.26394 59.1405C4.89804 63.9094 8.79302 69.2691 17.8938 73.0934C22.4308 74.8875 27.2593 75.8312 32.1379 75.8773C33.6038 75.8962 35.0673 75.7567 36.5032 75.4612C35.1882 76.6263 33.79 77.7915 32.2836 79.0149C32.1868 79.0915 32.1189 79.1986 32.0909 79.3188C32.063 79.439 32.0766 79.5651 32.1296 79.6766C32.1742 79.7725 32.2453 79.8537 32.3345 79.9105C32.4237 79.9672 32.5274 79.9973 32.6331 79.997C32.6663 80.001 32.6998 80.001 32.733 79.997C40.3232 78.5613 53.0235 76.1603 57.8839 65.9318C58.5088 64.5012 59.0412 63.0321 59.4777 61.5333C59.5826 65.8353 59.135 70.1329 58.1461 74.321C58.1218 74.4332 58.1328 74.5502 58.1775 74.6559C58.2221 74.7617 58.2984 74.8511 58.3958 74.9119C58.4837 74.9652 58.5843 74.9939 58.6871 74.9951C58.8157 74.9949 58.9405 74.9509 59.0408 74.8703C67.6297 67.8168 72.8313 57.9088 72.6233 48.9994C72.4097 44.8381 71.6384 41.2469 70.3096 38.2258C70.4885 38.4672 70.6675 38.7335 70.8547 39.0165C71.8243 40.4812 73.1559 42.4828 76.2436 43.2818C76.2892 43.2878 76.3354 43.2878 76.3809 43.2818C76.4602 43.2804 76.5382 43.2622 76.6099 43.2285C76.6816 43.1948 76.7454 43.1463 76.7971 43.0862C76.8637 43.0091 76.9076 42.9149 76.9238 42.8142C76.94 42.7135 76.9278 42.6103 76.8886 42.5161ZM69.7104 25.821L70.0516 26.2371C71.404 27.9016 72.024 28.634 73.106 34.4557C73.5954 36.7651 74.2846 39.0277 75.1658 41.2178L60.8343 20.0617C64.3256 21.5223 67.5423 23.166 69.7104 25.821ZM65.4742 33.0616C67.3305 34.8917 68.7612 37.108 69.6646 39.5533L58.4707 44.0475C58.4707 43.9975 58.4374 43.9476 58.4249 43.8977L58.7745 28.867C61.2041 29.9309 63.462 31.3502 65.4742 33.0783V33.0616ZM60.3017 57.7465C60.2642 57.3928 60.2309 57.0973 60.2143 56.8601V56.598L71.0337 53.6268L59.7981 71.8741C61.0507 64.7125 60.5555 60.1018 60.3017 57.7631V57.7465ZM51.0802 72.3027L39.1747 74.5082C39.3869 74.3085 39.5908 74.0921 39.7947 73.9007L40.0403 73.6718C43.644 70.0223 46.4528 65.9734 48.6334 59.9104C48.9538 59.0199 49.2451 58.1668 49.5197 57.3262L51.6004 71.9199C51.4298 72.0447 51.255 72.1737 51.0802 72.3027ZM29.766 48.6707L40.1276 60.6927C38.5992 61.7896 36.9638 62.7292 35.2464 63.4974L24.7766 59.1114L29.766 48.6707ZM44.8216 57.967C47.8018 54.6121 49.7661 50.4785 50.4851 46.0491C50.4061 50.7389 49.32 54.7129 47.5722 59.5275C47.0534 60.9657 46.4561 62.3744 45.7829 63.7471L34.385 65.0537C38.3696 63.5389 41.9439 61.1119 44.8216 57.967ZM50.5892 36.9899C50.5434 36.7985 50.5018 36.6112 50.4602 36.424L57.343 44.0766C57.4262 44.3388 57.5011 44.6009 57.576 44.8631L50.5018 54.018C51.2334 51.2378 51.6027 48.3746 51.6004 45.4998C51.5303 42.6918 51.1945 39.8968 50.5975 37.1522L50.5892 36.9899ZM50.0981 55.4286L57.7549 45.5123C58.6289 48.5715 59.0838 51.7352 59.1074 54.9168C59.1074 55.3329 59.1074 55.7491 59.1074 56.1111L49.9525 55.9155C50.0066 55.7532 50.0524 55.5909 50.0981 55.4286ZM60.2018 56.057C60.2018 55.6908 60.2018 55.3121 60.2018 54.9168C60.1815 51.6803 59.7266 48.4612 58.8494 45.3458L70.9171 53.0942L60.2018 56.057ZM57.9131 42.3746C55.6701 36.1327 51.9416 30.4608 47.4141 26.724C47.8302 26.724 48.2214 26.7531 48.5252 26.7531C51.8536 26.7426 55.1519 27.3844 58.2335 28.6423L57.9131 42.3746ZM59.3737 19.4625V19.4875C59.3718 19.5068 59.3718 19.5263 59.3737 19.5457L58.5747 27.4522L51.7627 15.5092L59.3737 19.4625ZM65.8112 19.9161C63.8104 19.2333 61.7539 18.7265 59.665 18.4014L45.8328 11.7058L50.9013 11.918C57.7799 12.2218 62.6736 16.1334 65.8112 19.9161ZM43.5607 7.9648C47.6013 6.47089 51.4464 5.05189 53.3856 2.17227C53.9681 5.85502 52.7073 8.63477 51.0386 10.2785C51.0018 10.308 50.967 10.34 50.9346 10.3742L50.8721 10.4325C50.3437 10.8153 40.6853 10.7737 37.0608 10.7446C38.9833 9.65429 41.2512 8.81787 43.5607 7.9648ZM34.5598 25.2509C34.4391 25.1654 34.2896 25.131 34.1437 25.1552C31.8269 25.5855 29.5559 26.2334 27.3608 27.0902C28.5717 25.7169 30.2737 23.7986 31.7176 22.2339C31.7744 22.1717 31.8166 22.0975 31.8411 22.0169C31.8656 21.9363 31.8717 21.8512 31.8591 21.7678C30.9853 16.3582 32.9619 13.3787 36.1494 11.298L44.3971 11.6434L50.8638 15.0016L57.8715 27.2816C54.88 26.1745 51.7149 25.6108 48.5252 25.6171C48.2297 25.6171 47.8469 25.6171 47.4432 25.5838C46.9772 25.5838 46.4736 25.5505 46.0284 25.5505H45.7454C45.5998 25.5505 45.4583 25.5505 45.3293 25.5505H45.2336C43.0031 26.1996 37.4769 27.3315 34.5598 25.2509ZM56.8686 42.7533L50.1564 35.2879C49.5311 32.9009 48.6783 30.5794 47.6097 28.3552C51.6004 31.9547 54.8462 37.1272 56.8686 42.7533ZM42.9282 51.2049C45.1653 50.9505 47.2492 49.9422 48.8373 48.3461C47.9235 51.6415 46.2664 54.6837 43.9935 57.2388C43.1349 58.1956 42.1997 59.0808 41.1971 59.8854L42.4039 51.2507C42.5703 51.2341 42.7534 51.2049 42.9282 51.2049ZM41.8379 51.3173L40.5729 60.3598L30.5026 48.7081C34.0896 50.5433 38.2259 51.5545 41.8379 51.309V51.3173ZM29.0919 47.8759L29.3832 48.2171L24.4645 58.5247L22.1758 40.914C22.8414 42.0197 23.6001 43.0666 24.4437 44.0433C25.7824 45.5568 27.351 46.8501 29.0919 47.8759ZM21.4184 39.5533L12.2261 44.7549L19.3003 27.627C18.8079 31.7245 19.5452 35.8759 21.4184 39.5533ZM19.8205 24.8639L11.7975 23.9484L24.4395 15.4968C22.2492 18.2476 20.6741 21.4361 19.8205 24.8472V24.8639ZM26.0624 13.6283L22.4712 10.1869L22.775 9.99552L32.4292 8.6639C30.0708 9.99679 27.9213 11.6695 26.05 13.6283H26.0624ZM34.8927 5.22666C36.1411 4.91041 37.4103 4.6524 38.6379 4.3944C39.7198 4.17385 40.6478 3.97827 41.426 3.78685C39.272 5.23432 36.9938 6.48764 34.6181 7.53203C34.3476 7.65687 34.0896 7.79003 33.8233 7.92319L23.9859 9.27561C26.6325 7.815 30.0739 6.44593 34.8927 5.22666ZM15.526 16.999L15.68 16.8034C17.3445 14.6811 19.009 12.5256 22.0052 10.4949L25.6754 14.0153L11.9223 23.1702C12.8439 20.9621 14.0558 18.8867 15.526 16.999ZM11.4355 24.4311L19.654 25.3674L11.6518 44.7341C11.1563 43.4722 10.7529 42.176 10.4451 40.8558C9.18987 35.3995 9.53372 29.697 11.4355 24.4311ZM11.9515 45.5123L21.5225 40.1026L23.8819 58.2791C18.5317 55.5533 14.3091 51.0346 11.9515 45.5123ZM22.7708 59.2029L12.9002 61.8204L11.6976 52.2785C14.3775 55.3205 18.0394 57.5925 22.7584 59.2029H22.7708ZM8.73892 47.8759L1.28187 39.6032L6.18805 38.979C6.52573 42.0682 7.38842 45.0771 8.73892 47.8759ZM5.90508 32.7287C5.86732 34.6351 5.94932 36.542 6.15059 38.438L1.34429 39.0456C2.00173 33.4549 4.07102 28.1234 7.35737 23.553C6.48077 26.5357 5.98579 29.6174 5.88427 32.7246L5.90508 32.7287ZM4.75656 54.8128C2.35548 51.0676 0.849091 45.196 1.17367 40.889C1.17367 40.6976 1.21113 40.5187 1.22777 40.3273L10.0331 50.1188C10.3535 50.5974 10.6947 51.0634 11.0568 51.5129L12.3468 61.733C9.27546 60.0908 6.66015 57.7114 4.73575 54.8086L4.75656 54.8128ZM13.3164 62.2615L23.7196 59.5275L24.0775 59.6399C24.2157 59.6827 24.3653 59.6692 24.4936 59.6024L34.539 63.8012C33.765 64.1258 32.966 64.4129 32.1546 64.6751C26.5784 66.1066 19.3253 65.2785 13.3164 62.2615ZM31.572 66.0067L27.8809 74.4791L27.5439 74.4375L11.4812 65.3159C15.1848 66.6226 19.2004 67.3633 22.0967 67.3633C25.3068 67.3644 28.501 66.9118 31.5845 66.0192L31.572 66.0067ZM5.85514 62.7401L26.0333 74.2169C23.3858 73.796 20.7948 73.0756 18.3099 72.0697C12.068 69.4398 8.40602 66.1607 5.86763 62.7525L5.85514 62.7401ZM38.8709 73.2224C37.3437 74.6372 33.1075 75.0326 28.4219 74.5332L32.2461 65.8361L45.4999 64.3172C43.7908 67.6157 41.5592 70.6159 38.8917 73.2016L38.8709 73.2224ZM38.4548 75.1782L50.0024 73.0393C45.2211 76.1353 39.3328 77.5501 34.6763 78.474C36.0163 77.3754 37.273 76.2893 38.4548 75.1907V75.1782ZM56.8727 65.4574C55.7455 67.8004 54.1142 69.8651 52.0956 71.5038L49.9358 56.3608L59.0907 56.5605C58.97 59.5483 58.4956 61.6331 56.8727 65.4699V65.4574ZM59.9979 72.5316L70.8672 54.9085C69.4108 61.1588 65.5574 67.4673 59.9979 72.5482V72.5316ZM71.2833 52.678L58.6288 44.5468L69.8643 40.0443C70.8572 42.9382 71.418 45.9627 71.5289 49.0202C71.5442 50.2496 71.4621 51.4783 71.2833 52.6947V52.678ZM71.7785 38.3798C71.5455 38.0302 71.325 37.6973 71.0919 37.3936C69.6356 35.5013 67.9842 33.7676 66.1649 32.221C66.0276 32.0879 65.8903 31.9506 65.7488 31.8257H65.6614C63.6697 30.181 61.4581 28.8224 59.0907 27.7893L59.8647 20.1533L74.6124 41.4134C73.2392 40.5894 72.4735 39.4451 71.7785 38.3964V38.3798Z" fill="url(#paint0_linear)"/>
<path d="M38.8476 19.1296C38.7578 19.0694 38.6519 19.0376 38.5438 19.0381C38.4521 19.0378 38.3618 19.0606 38.2811 19.1042C38.2004 19.1478 38.1319 19.2109 38.0819 19.2878C37.9134 19.592 37.6855 19.8592 37.4117 20.0737C37.1379 20.2881 36.8238 20.4454 36.4881 20.5362C35.9973 20.6162 35.4941 20.5141 35.0733 20.249C35.014 20.207 34.947 20.177 34.8761 20.1608C34.8052 20.1446 34.7319 20.1425 34.6602 20.1547C34.5885 20.1669 34.5199 20.193 34.4583 20.2317C34.3968 20.2704 34.3434 20.3208 34.3014 20.3801C34.2593 20.4394 34.2293 20.5064 34.2131 20.5773C34.1969 20.6482 34.1949 20.7215 34.207 20.7932C34.2192 20.8649 34.2454 20.9335 34.2841 20.995C34.3227 21.0566 34.3732 21.11 34.4324 21.152C34.9473 21.4839 35.5469 21.6601 36.1594 21.6597C36.3338 21.6605 36.5079 21.6452 36.6795 21.6139C37.1654 21.5006 37.6226 21.2884 38.0228 20.9905C38.423 20.6927 38.7576 20.3156 39.0057 19.8828C39.0822 19.7613 39.1085 19.6148 39.079 19.4743C39.0495 19.3337 38.9665 19.2101 38.8476 19.1296Z" fill="#B4200A"/>
<g clip-path="url(#clip0)">
<path d="M83.9304 10.4248H85.8054V21.8748C85.7862 22.4005 85.8778 22.9243 86.0742 23.4123C86.2492 23.7998 86.6659 23.9936 87.3242 23.9936H87.7429V24.3748H85.8679C85.559 24.3805 85.2506 24.3491 84.9492 24.2811C84.7146 24.2231 84.5058 24.089 84.3554 23.8998C84.1808 23.6725 84.0629 23.4068 84.0117 23.1248C83.9518 22.7109 83.9247 22.293 83.9304 21.8748V10.4248Z" fill="white"/>
<path d="M89.9 12.9627C89.9266 12.4234 89.7869 11.8889 89.5 11.4314C89.3161 11.2182 89.0824 11.0535 88.8197 10.9522C88.5569 10.8508 88.2733 10.8157 87.9938 10.8502H87.7812V10.4252H89.175C89.7623 10.4024 90.3468 10.518 90.8812 10.7627C91.3271 10.9895 91.7208 11.3067 92.0375 11.6939L99.4313 20.9064V10.4252H100.275V24.6127H99.8563L90.75 13.2814V24.3752H89.9V12.9627Z" fill="white"/>
<path d="M103.474 12.9627C103.498 12.4237 103.358 11.8901 103.074 11.4314C102.89 11.2186 102.656 11.0543 102.394 10.9529C102.131 10.8516 101.847 10.8163 101.568 10.8502H101.355V10.4252H102.73C103.318 10.4024 103.902 10.518 104.437 10.7627C104.883 10.9895 105.276 11.3067 105.593 11.6939L113.005 20.9064V10.4252H113.849V24.6127H113.424L104.318 13.2814V24.3752H103.474V12.9627Z" fill="white"/>
<path d="M115.692 17.4124C115.683 16.4272 115.837 15.4473 116.148 14.5124C116.426 13.6461 116.872 12.8432 117.461 12.1499C118.03 11.4811 118.738 10.9438 119.536 10.5749C120.393 10.1958 121.32 10 122.257 10C123.195 10 124.122 10.1958 124.979 10.5749C125.776 10.9455 126.483 11.4826 127.054 12.1499C127.639 12.8464 128.084 13.6483 128.367 14.5124C128.674 15.4481 128.828 16.4274 128.823 17.4124C128.83 18.4015 128.675 19.3851 128.367 20.3249C128.081 21.1839 127.636 21.9812 127.054 22.6749C126.483 23.3422 125.776 23.8792 124.979 24.2499C124.122 24.6289 123.195 24.8247 122.257 24.8247C121.32 24.8247 120.393 24.6289 119.536 24.2499C118.738 23.8809 118.03 23.3436 117.461 22.6749C116.875 21.9843 116.429 21.186 116.148 20.3249C115.836 19.3858 115.682 18.4017 115.692 17.4124ZM126.704 17.4124C126.716 16.4969 126.613 15.5836 126.398 14.6936C126.223 13.9552 125.926 13.2516 125.517 12.6124C125.164 12.0694 124.686 11.6193 124.123 11.2999C123.543 11.0011 122.9 10.8452 122.248 10.8452C121.596 10.8452 120.953 11.0011 120.373 11.2999C119.81 11.6193 119.332 12.0694 118.979 12.6124C118.571 13.2516 118.273 13.9552 118.098 14.6936C117.883 15.5836 117.781 16.4969 117.792 17.4124C117.781 18.3278 117.883 19.2411 118.098 20.1311C118.271 20.868 118.569 21.5698 118.979 22.2061C119.342 22.7582 119.839 23.2096 120.423 23.5186C121.002 23.8214 121.645 23.9796 122.298 23.9796C122.951 23.9796 123.594 23.8214 124.173 23.5186C124.739 23.2029 125.218 22.7519 125.567 22.2061C125.977 21.5698 126.275 20.868 126.448 20.1311C126.646 19.239 126.732 18.3257 126.704 17.4124Z" fill="white"/>
<path d="M133.293 24.3748H131.418V12.9623C131.439 12.4385 131.348 11.9163 131.149 11.4311C130.974 11.0436 130.568 10.8498 129.937 10.8498H129.512V10.4248H134.987C135.518 10.432 136.048 10.4737 136.574 10.5498C137.181 10.6372 137.769 10.8274 138.312 11.1123C138.876 11.4161 139.355 11.8566 139.705 12.3936C140.12 13.0753 140.32 13.8656 140.28 14.6623C140.294 15.1931 140.205 15.7215 140.018 16.2186C139.856 16.621 139.621 16.9898 139.324 17.3061C139.053 17.5946 138.736 17.8373 138.387 18.0248C138.059 18.2039 137.711 18.3424 137.349 18.4373C137.029 18.5241 136.703 18.5889 136.374 18.6311C136.068 18.6311 135.818 18.6811 135.618 18.6811H133.293V24.3748ZM134.88 17.9186C135.222 17.911 135.561 17.8541 135.887 17.7498C136.275 17.6259 136.638 17.4309 136.955 17.1748C137.31 16.887 137.601 16.5297 137.812 16.1248C138.058 15.6307 138.179 15.0831 138.162 14.5311C138.179 13.977 138.059 13.4272 137.812 12.9311C137.601 12.5262 137.31 12.1688 136.955 11.8811C136.638 11.625 136.275 11.43 135.887 11.3061C135.561 11.2017 135.222 11.1449 134.88 11.1373C134.599 11.1538 134.319 11.1914 134.043 11.2498C133.79 11.2816 133.54 11.3296 133.293 11.3936V17.7311C133.54 17.795 133.79 17.843 134.043 17.8748C134.32 17.9186 134.6 17.9416 134.88 17.9436V17.9186Z" fill="white"/>
<path d="M145.954 17.9436H144.473V24.3748H142.598V12.9623C142.609 12.4362 142.507 11.9139 142.298 11.4311C142.123 11.0436 141.716 10.8498 141.085 10.8498H140.66V10.4248H146.166C146.697 10.4303 147.227 10.4678 147.754 10.5373C148.357 10.6183 148.943 10.7933 149.491 11.0561C150.041 11.3262 150.518 11.7224 150.885 12.2123C151.295 12.8052 151.497 13.5173 151.46 14.2373C151.476 14.7697 151.366 15.2983 151.141 15.7811C150.947 16.1841 150.67 16.5418 150.329 16.8311C149.996 17.0969 149.622 17.3079 149.223 17.4561C148.848 17.6027 148.464 17.7238 148.073 17.8186L150.291 21.5248C150.519 21.9197 150.772 22.2996 151.048 22.6623C151.25 22.9303 151.48 23.1755 151.735 23.3936C151.933 23.571 152.162 23.7108 152.41 23.8061C152.649 23.8965 152.899 23.9533 153.154 23.9748V24.3748C152.988 24.4467 152.814 24.4971 152.635 24.5248C152.388 24.5689 152.137 24.5898 151.885 24.5873C151.536 24.5902 151.188 24.5396 150.854 24.4373C150.517 24.3307 150.205 24.1587 149.935 23.9311C149.596 23.652 149.293 23.3306 149.035 22.9748C148.684 22.5104 148.362 22.0239 148.073 21.5186L145.954 17.9436ZM146.06 17.1998C146.402 17.1922 146.741 17.1354 147.066 17.0311C147.447 16.9146 147.808 16.7396 148.135 16.5123C148.479 16.279 148.771 15.9767 148.991 15.6248C149.234 15.2127 149.355 14.7404 149.341 14.2623C149.354 13.7665 149.233 13.2765 148.991 12.8436C148.777 12.4645 148.485 12.1345 148.135 11.8748C147.808 11.6437 147.448 11.4645 147.066 11.3436C146.737 11.2338 146.394 11.1727 146.048 11.1623C145.767 11.1643 145.487 11.1873 145.21 11.2311C144.957 11.2629 144.707 11.3109 144.46 11.3748V16.9998C144.707 17.0631 144.958 17.1131 145.21 17.1498C145.488 17.1875 145.768 17.2042 146.048 17.1998H146.06Z" fill="white"/>
<path d="M166.429 24.3748C166.154 24.4495 165.87 24.4853 165.585 24.4811C165.304 24.4784 165.024 24.4512 164.748 24.3998C164.403 24.3337 164.073 24.2067 163.773 24.0248C163.402 23.8031 163.073 23.5199 162.798 23.1873C162.441 22.755 162.166 22.2616 161.985 21.7311L161.454 20.3498H155.523L153.829 24.3748H152.879L158.81 10.4248H159.435L164.098 21.7561C164.266 22.1498 164.423 22.4811 164.573 22.7623C164.701 23.0099 164.87 23.2339 165.073 23.4248C165.243 23.5877 165.442 23.717 165.66 23.8061C165.904 23.9005 166.161 23.9574 166.423 23.9748L166.429 24.3748ZM155.841 19.5061H161.048L158.51 13.3623L155.841 19.5061Z" fill="white"/>
<path d="M167.598 10.4247C167.917 10.4161 168.236 10.4476 168.548 10.5185C168.794 10.5685 169.015 10.7035 169.173 10.8997C169.338 11.1309 169.443 11.3993 169.479 11.681C169.543 12.105 169.572 12.5335 169.566 12.9622V17.0935L174.01 12.6497C174.279 12.381 174.535 12.1122 174.785 11.8497C175.027 11.5949 175.288 11.3588 175.566 11.1435C175.825 10.9336 176.111 10.7591 176.416 10.6247C176.777 10.4869 177.161 10.419 177.548 10.4247H178.61V10.956C178.081 10.9443 177.557 11.0488 177.073 11.2622C176.496 11.5622 175.976 11.9597 175.535 12.4372L171.41 16.5622L176.279 21.631C176.834 22.2169 177.448 22.7446 178.11 23.206C178.631 23.5982 179.237 23.8616 179.879 23.9747V24.3747C179.695 24.4384 179.507 24.4885 179.316 24.5247C179.048 24.5716 178.776 24.5925 178.504 24.5872C178.193 24.5861 177.883 24.5547 177.579 24.4935C177.218 24.4121 176.869 24.284 176.541 24.1122C176.122 23.8893 175.722 23.63 175.348 23.3372C174.849 22.9424 174.381 22.5099 173.948 22.0435L169.504 17.3872V24.3747H167.598V12.9622C167.619 12.4385 167.527 11.9162 167.329 11.431C167.154 11.0435 166.748 10.8497 166.116 10.8497H165.691V10.4247H167.598Z" fill="white"/>
<path d="M190.851 10.425V11.25H186.088V24.375H184.176V11.25H182.301C181.598 11.2044 180.903 11.4105 180.338 11.8313C180.091 12.0728 179.901 12.3665 179.782 12.691C179.663 13.0154 179.618 13.3622 179.651 13.7063H179.176V12.1188C179.176 11.9082 179.201 11.6983 179.251 11.4938C179.297 11.2948 179.392 11.1103 179.526 10.9563C179.677 10.7879 179.865 10.6573 180.076 10.575C180.363 10.4662 180.669 10.4152 180.976 10.425H190.851Z" fill="white"/>
<path d="M192.48 10.4248H194.387V21.8748C194.365 22.4 194.455 22.9239 194.649 23.4123C194.824 23.7998 195.241 23.9936 195.899 23.9936H196.324V24.3748H194.449C194.138 24.3809 193.828 24.3494 193.524 24.2811C193.291 24.2245 193.084 24.09 192.937 23.8998C192.771 23.671 192.663 23.4048 192.624 23.1248C192.562 22.6965 192.535 22.2638 192.543 21.8311L192.48 10.4248Z" fill="white"/>
<path d="M198.367 10.4252C198.676 10.4185 198.985 10.45 199.286 10.519C199.521 10.5756 199.73 10.7099 199.88 10.9002C200.045 11.1313 200.15 11.3997 200.186 11.6815C200.25 12.1055 200.279 12.534 200.273 12.9627V17.094L204.717 12.6502C204.986 12.3815 205.242 12.1127 205.492 11.8502C205.736 11.5968 205.997 11.3608 206.273 11.144C206.552 10.9291 206.859 10.7545 207.186 10.6252C207.547 10.4879 207.931 10.4201 208.317 10.4252H209.38V10.9565C208.851 10.9448 208.326 11.0493 207.842 11.2627C207.267 11.5615 206.748 11.9592 206.311 12.4377L202.18 16.5627L207.048 21.6315C207.604 22.2173 208.217 22.7451 208.88 23.2065C209.4 23.5987 210.006 23.8621 210.648 23.9752V24.3752C210.465 24.4388 210.277 24.489 210.086 24.5252C209.818 24.572 209.546 24.5929 209.273 24.5877C208.963 24.5865 208.653 24.5551 208.348 24.494C207.987 24.4126 207.639 24.2844 207.311 24.1127C206.892 23.8883 206.493 23.629 206.117 23.3377C205.618 22.9428 205.15 22.5103 204.717 22.044L200.273 17.3877V24.3752H198.398V12.9627C198.419 12.4396 198.329 11.918 198.136 11.4315C198.014 11.2241 197.833 11.0579 197.616 10.9543C197.398 10.8507 197.155 10.8145 196.917 10.8502H196.492V10.4252H198.367Z" fill="white"/>
<path d="M223.97 24.3748C223.695 24.4495 223.411 24.4853 223.126 24.4811C222.845 24.4784 222.565 24.4512 222.288 24.3998C221.944 24.3337 221.613 24.2067 221.313 24.0248C220.943 23.8031 220.613 23.5199 220.338 23.1873C219.982 22.755 219.706 22.2616 219.526 21.7311L218.995 20.3498H213.063L211.37 24.3748H210.426L216.345 10.4248H216.97L221.676 21.7561C221.845 22.1498 222.001 22.4811 222.151 22.7623C222.279 23.0083 222.445 23.232 222.645 23.4248C222.817 23.5875 223.018 23.7168 223.238 23.8061C223.482 23.9005 223.74 23.9574 224.001 23.9748L223.97 24.3748ZM213.382 19.5061H218.551L216.051 13.3873L213.382 19.5061Z" fill="white"/>
<path d="M228.551 21.4375C228.545 21.0239 228.63 20.6142 228.801 20.2375C228.976 19.8675 229.205 19.5262 229.482 19.225C229.776 18.8941 230.102 18.5946 230.457 18.3312L231.595 17.5C231.187 17.1443 230.818 16.7462 230.495 16.3125C230.192 15.9073 229.94 15.4665 229.745 15C229.521 14.4678 229.409 13.8958 229.414 13.3187C229.39 12.8635 229.468 12.4087 229.643 11.9879C229.819 11.5671 230.086 11.191 230.426 10.8875C231.218 10.257 232.215 9.94103 233.226 9.99996C234.164 9.93851 235.089 10.2432 235.807 10.85C236.102 11.1161 236.336 11.4424 236.493 11.8069C236.651 12.1714 236.728 12.5655 236.72 12.9625C236.73 13.4214 236.643 13.8772 236.464 14.3C236.294 14.6943 236.067 15.0609 235.789 15.3875C235.492 15.7345 235.161 16.0507 234.801 16.3312C234.432 16.6312 234.039 16.9187 233.626 17.2L237.882 21.875C238.166 21.5726 238.433 21.2555 238.682 20.925C238.914 20.6125 239.114 20.3312 239.307 20.075C239.501 19.8187 239.664 19.5 239.814 19.2312L240.239 19.55C240.1 19.8538 239.946 20.15 239.776 20.4375C239.62 20.7062 239.42 21.0125 239.182 21.35C238.926 21.7025 238.651 22.0405 238.357 22.3625L240.232 24.4187H237.901L237.057 23.5062C236.519 23.9045 235.928 24.2263 235.301 24.4625C233.939 24.9291 232.467 24.9683 231.082 24.575C230.579 24.4253 230.108 24.1814 229.695 23.8562C229.336 23.5717 229.051 23.2052 228.864 22.7875C228.66 22.3665 228.553 21.9052 228.551 21.4375ZM233.401 24.0812C234 24.0912 234.595 23.9917 235.157 23.7875C235.665 23.594 236.143 23.3288 236.576 23L232.201 18.2375C231.758 18.6236 231.371 19.0696 231.051 19.5625C230.732 20.0573 230.569 20.6364 230.582 21.225C230.578 23.1333 231.524 24.0854 233.42 24.0812H233.401ZM231.426 13.3062C231.431 13.7126 231.516 14.1141 231.676 14.4875C231.808 14.8282 231.973 15.1548 232.17 15.4625C232.323 15.7061 232.496 15.9361 232.689 16.15C232.782 16.2607 232.884 16.3632 232.995 16.4562C233.503 16.0266 233.959 15.5377 234.351 15C234.737 14.4688 234.937 13.8251 234.92 13.1687C234.93 12.7815 234.877 12.3953 234.764 12.025C234.675 11.7509 234.535 11.4963 234.351 11.275C234.196 11.1006 234.007 10.9602 233.795 10.8625C233.616 10.7808 233.422 10.7382 233.226 10.7375C233.012 10.7383 232.799 10.7807 232.601 10.8625C232.377 10.9605 232.179 11.1079 232.02 11.2937C231.828 11.5282 231.684 11.7978 231.595 12.0875C231.476 12.4826 231.419 12.8937 231.426 13.3062Z" fill="white"/>
<path d="M89.2234 40.531H87.7422V46.9872H85.8672V35.556C85.8884 35.0307 85.799 34.5069 85.6047 34.0185C85.4807 33.8055 85.2944 33.6356 85.0709 33.5317C84.8474 33.4278 84.5975 33.3948 84.3547 33.4372H83.9297V33.0122H89.4359C89.9671 33.017 90.4974 33.0566 91.0234 33.131C91.6274 33.206 92.2147 33.3813 92.7609 33.6497C93.3118 33.9172 93.7915 34.3113 94.1609 34.7997C94.5689 35.3934 94.7689 36.1054 94.7297 36.8247C94.7451 37.3571 94.636 37.8857 94.4109 38.3685C94.2166 38.7715 93.9398 39.1292 93.5984 39.4185C93.2675 39.6842 92.8961 39.8952 92.4984 40.0435C92.1216 40.1901 91.7353 40.3112 91.3422 40.406L93.5672 44.1122C93.7936 44.5004 94.0441 44.8741 94.3172 45.231C94.5192 45.4989 94.7497 45.7441 95.0047 45.9622C95.2039 46.1412 95.435 46.2811 95.6859 46.3747C95.9237 46.4721 96.1741 46.5352 96.4297 46.5622V46.9872C96.2639 47.0591 96.0895 47.1095 95.9109 47.1372C95.6634 47.1813 95.4123 47.2022 95.1609 47.1997C94.8115 47.2026 94.4638 47.152 94.1297 47.0497C93.7932 46.9429 93.481 46.7709 93.2109 46.5435C92.8756 46.2719 92.5716 45.9637 92.3047 45.6247C91.9554 45.1565 91.6341 44.6682 91.3422 44.1622L89.2234 40.531ZM89.3297 39.7872C89.6715 39.7796 90.0104 39.7228 90.3359 39.6185C90.7256 39.5044 91.0948 39.3293 91.4297 39.0997C91.7761 38.8591 92.0678 38.5482 92.2859 38.1872C92.5306 37.7759 92.6521 37.303 92.6359 36.8247C92.6519 36.3286 92.5308 35.8377 92.2859 35.406C92.0698 35.0314 91.7782 34.7058 91.4297 34.4497C91.1042 34.2181 90.7432 34.0408 90.3609 33.9247C90.0277 33.8159 89.6802 33.7569 89.3297 33.7497C89.0493 33.7495 88.7694 33.7703 88.4922 33.8122C88.2394 33.844 87.9889 33.892 87.7422 33.956V39.581C87.9894 39.6442 88.2397 39.6943 88.4922 39.731C88.7695 39.7707 89.0495 39.7895 89.3297 39.7872Z" fill="white"/>
<path d="M97.6094 35.5559C97.6311 35.03 97.5395 34.5057 97.3406 34.0184C97.1656 33.6309 96.7594 33.4371 96.1281 33.4371H95.7031V33.0121H97.6094C97.9183 33.0054 98.2269 33.0369 98.5281 33.1059C98.7633 33.1625 98.9725 33.2969 99.1219 33.4871C99.2879 33.72 99.3932 33.9907 99.4281 34.2746C99.4906 34.6883 99.5198 35.1063 99.5156 35.5246V41.5559C99.5079 42.2273 99.5708 42.8976 99.7031 43.5559C99.8052 44.0919 100.018 44.6006 100.328 45.0496C100.623 45.4611 101.022 45.7868 101.484 45.9934C102.043 46.2305 102.647 46.3435 103.253 46.3246C103.944 46.3428 104.632 46.2348 105.284 46.0059C105.812 45.8089 106.274 45.4665 106.616 45.0184C106.979 44.5193 107.225 43.9446 107.334 43.3371C107.488 42.5424 107.559 41.7339 107.547 40.9246V33.0121H108.397V40.9559C108.405 41.8674 108.328 42.7776 108.166 43.6746C108.044 44.3793 107.762 45.0465 107.341 45.6246C106.913 46.1671 106.338 46.575 105.684 46.7996C104.823 47.0881 103.917 47.2214 103.009 47.1934C102.13 47.2176 101.254 47.0842 100.422 46.7996C99.77 46.5687 99.1946 46.1621 98.7594 45.6246C98.3192 45.0482 98.0157 44.3793 97.8719 43.6684C97.6859 42.7743 97.5979 41.8627 97.6094 40.9496V35.5559Z" fill="white"/>
<path d="M119.507 43.4311C119.515 43.9838 119.411 44.5326 119.2 45.0436C119.001 45.518 118.703 45.9442 118.325 46.2936C117.921 46.6494 117.449 46.9194 116.938 47.0873C116.346 47.2768 115.728 47.3697 115.107 47.3623C114.525 47.3612 113.945 47.3004 113.375 47.1811C112.841 47.0736 112.322 46.8994 111.832 46.6623C111.411 46.4632 111.032 46.1877 110.713 45.8498C110.434 45.564 110.277 45.1807 110.275 44.7811V42.4998H110.7C110.808 43.6513 111.301 44.7327 112.1 45.5686C112.892 46.2259 113.904 46.5587 114.932 46.4998C115.282 46.5027 115.631 46.4564 115.969 46.3623C116.285 46.2831 116.582 46.143 116.844 45.9498C117.1 45.7736 117.313 45.5431 117.469 45.2748C117.616 44.9981 117.689 44.6881 117.682 44.3748C117.696 43.7912 117.488 43.2239 117.1 42.7873C116.59 42.2536 115.999 41.8024 115.35 41.4498L112.75 39.8748C112.005 39.4722 111.353 38.9163 110.838 38.2436C110.449 37.6462 110.252 36.9437 110.275 36.2311C110.267 35.7215 110.369 35.2161 110.575 34.7498C110.774 34.3142 111.066 33.9279 111.432 33.6186C111.797 33.2959 112.221 33.0476 112.682 32.8873C113.224 32.7081 113.792 32.6215 114.363 32.6311C114.9 32.6325 115.437 32.6891 115.963 32.7998C116.474 32.9019 116.97 33.07 117.438 33.2998C117.844 33.498 118.211 33.7691 118.519 34.0998C118.787 34.3933 118.935 34.7773 118.932 35.1748V37.4373H118.513C118.414 36.2965 117.942 35.2201 117.169 34.3748C116.383 33.7312 115.383 33.4076 114.369 33.4686C114.061 33.4665 113.755 33.515 113.463 33.6123C113.181 33.7057 112.918 33.8497 112.688 34.0373C112.46 34.2224 112.273 34.4521 112.138 34.7123C111.994 34.9946 111.921 35.3079 111.925 35.6248C111.916 35.9037 111.96 36.1817 112.057 36.4436C112.165 36.6923 112.315 36.9206 112.5 37.1186C112.724 37.3546 112.973 37.5643 113.244 37.7436C113.538 37.9498 113.869 38.1623 114.257 38.3686L116.863 39.9123C117.268 40.1497 117.66 40.4084 118.038 40.6873C118.346 40.9086 118.621 41.1715 118.857 41.4686C119.063 41.7339 119.223 42.0317 119.332 42.3498C119.451 42.6977 119.51 43.0634 119.507 43.4311Z" fill="white"/>
<path d="M130.286 43.4309C130.295 43.9837 130.191 44.5324 129.98 45.0434C129.778 45.5181 129.478 45.9443 129.098 46.2934C128.694 46.6492 128.222 46.9193 127.711 47.0872C127.119 47.2772 126.501 47.3701 125.88 47.3622C125.3 47.3607 124.722 47.2999 124.155 47.1809C123.62 47.0735 123.102 46.8992 122.611 46.6622C122.189 46.4637 121.807 46.1882 121.486 45.8497C121.211 45.5618 121.056 45.1792 121.055 44.7809V42.4997H121.473C121.583 43.6505 122.076 44.7311 122.873 45.5684C123.666 46.2247 124.677 46.5573 125.705 46.4997C126.057 46.5026 126.409 46.4563 126.748 46.3622C127.064 46.2813 127.361 46.1414 127.623 45.9497C127.877 45.7717 128.09 45.5416 128.248 45.2747C128.395 44.9977 128.471 44.6883 128.467 44.3747C128.48 43.7902 128.27 43.2228 127.88 42.7872C127.372 42.2534 126.783 41.8021 126.136 41.4497L123.53 39.8747C122.782 39.472 122.129 38.9162 121.611 38.2434C121.298 37.7217 121.112 37.1342 121.066 36.5276C121.02 35.9211 121.117 35.3123 121.348 34.7497C121.542 34.3162 121.828 33.9301 122.186 33.6184C122.563 33.2896 123.003 33.0408 123.48 32.8872C124.028 32.7058 124.603 32.6192 125.18 32.6309C125.717 32.6324 126.254 32.6889 126.78 32.7997C127.289 32.9017 127.783 33.0698 128.248 33.2997C128.656 33.4962 129.023 33.7676 129.33 34.0997C129.602 34.3915 129.754 34.7756 129.755 35.1747V37.4372H129.33C129.224 36.2895 128.735 35.2107 127.942 34.3747C127.165 33.7429 126.18 33.4242 125.18 33.4809C124.872 33.4783 124.565 33.5269 124.273 33.6247C123.99 33.7195 123.726 33.8634 123.492 34.0497C123.266 34.2349 123.081 34.4647 122.948 34.7247C122.784 34.997 122.691 35.3067 122.68 35.6247C122.677 35.904 122.731 36.181 122.838 36.4388C122.946 36.6967 123.104 36.93 123.305 37.1247C123.526 37.3607 123.773 37.5704 124.042 37.7497C124.342 37.9559 124.667 38.1684 125.061 38.3747L127.68 39.9372C128.085 40.1745 128.477 40.4332 128.855 40.7122C129.161 40.9335 129.434 41.1964 129.667 41.4934C129.875 41.7585 130.038 42.0563 130.148 42.3747C130.249 42.7174 130.296 43.0738 130.286 43.4309Z" fill="white"/>
<path d="M132.572 33.0122H134.447V44.4497C134.426 44.9728 134.516 45.4945 134.709 45.981C134.884 46.3685 135.301 46.5622 135.959 46.5622H136.384V46.9872H134.478C134.166 46.9871 133.856 46.9493 133.553 46.8747C133.318 46.8205 133.11 46.6856 132.965 46.4935C132.798 46.2651 132.691 45.9988 132.653 45.7185C132.591 45.2922 132.564 44.8616 132.572 44.431V33.0122Z" fill="white"/>
<path d="M150.236 46.9872C149.959 47.0615 149.673 47.0972 149.386 47.0935C149.105 47.0905 148.825 47.0633 148.548 47.0122C148.204 46.944 147.875 46.8171 147.573 46.6372C147.205 46.4175 146.878 46.1364 146.605 45.806C146.257 45.3789 145.986 44.8946 145.805 44.3747L145.28 42.9997H139.33L137.636 47.0185H136.68L142.611 33.0435H143.236L147.905 44.3747C148.073 44.7685 148.236 45.106 148.38 45.381C148.51 45.6273 148.678 45.851 148.88 46.0435C149.059 46.2132 149.272 46.3431 149.505 46.4247C149.749 46.5199 150.006 46.5768 150.267 46.5935L150.236 46.9872ZM139.648 42.1185H144.836L142.292 35.9747L139.648 42.1185Z" fill="white"/>
<path d="M151.061 35.5558C151.085 35.0148 150.946 34.479 150.661 34.0183C150.477 33.8055 150.243 33.6412 149.98 33.5399C149.718 33.4385 149.434 33.4032 149.155 33.4371H148.93V33.0121H150.305C150.892 32.9893 151.476 33.1049 152.011 33.3496C152.457 33.5765 152.851 33.8936 153.167 34.2808L160.58 43.4933V33.0121H161.43V47.1996H161.005L151.905 35.8683V46.9871H151.061V35.5558Z" fill="white"/>
<path d="M177.891 43.431C177.897 43.9835 177.793 44.5317 177.585 45.0435C177.384 45.5182 177.083 45.9444 176.704 46.2935C176.3 46.6493 175.828 46.9194 175.316 47.0873C174.725 47.2773 174.106 47.3701 173.485 47.3623C172.905 47.3614 172.327 47.3007 171.76 47.181C171.226 47.0746 170.707 46.9002 170.216 46.6623C169.794 46.4638 169.413 46.1882 169.091 45.8498C168.816 45.5618 168.662 45.1793 168.66 44.781V42.4998H169.079C169.186 43.6512 169.68 44.7326 170.479 45.5685C171.269 46.2244 172.278 46.557 173.304 46.4998C173.657 46.5027 174.008 46.4564 174.348 46.3623C174.663 46.2814 174.96 46.1414 175.223 45.9498C175.479 45.774 175.692 45.5435 175.848 45.2748C176.006 44.9905 176.086 44.669 176.079 44.3435C176.093 43.7599 175.885 43.1925 175.498 42.756C174.989 42.2222 174.401 41.771 173.754 41.4185L171.148 39.8748C170.399 39.4738 169.745 38.9177 169.229 38.2435C168.842 37.6454 168.648 36.943 168.673 36.231C168.651 35.7246 168.738 35.2194 168.929 34.7498C169.122 34.3162 169.408 33.9302 169.766 33.6185C170.141 33.2897 170.579 33.0408 171.054 32.8873C171.598 32.7085 172.169 32.6219 172.741 32.631C173.279 32.6328 173.815 32.6893 174.341 32.7998C174.851 32.9018 175.344 33.0699 175.81 33.2998C176.218 33.4963 176.584 33.7677 176.891 34.0998C177.164 34.3916 177.315 34.7756 177.316 35.1748V37.4373H176.891C176.798 36.295 176.325 35.2169 175.548 34.3748C174.762 33.7312 173.762 33.4076 172.748 33.4685C172.442 33.4664 172.138 33.515 171.848 33.6123C171.564 33.7061 171.299 33.8501 171.066 34.0373C170.841 34.224 170.654 34.4533 170.516 34.7123C170.377 34.9894 170.306 35.2959 170.31 35.606C170.303 35.8831 170.352 36.1588 170.454 36.4165C170.556 36.6742 170.709 36.9087 170.904 37.106C171.125 37.3421 171.372 37.5518 171.641 37.731C171.941 37.9373 172.266 38.1498 172.66 38.356L175.266 39.8998C175.668 40.1497 176.056 40.4209 176.429 40.7123C176.735 40.9335 177.008 41.1965 177.241 41.4935C177.45 41.7573 177.611 42.0556 177.716 42.3748C177.833 42.7147 177.892 43.0717 177.891 43.431Z" fill="white"/>
<path d="M187.679 33.0122C187.986 33.0012 188.292 33.0523 188.579 33.1622C188.79 33.2427 188.979 33.3736 189.129 33.5434C189.262 33.6984 189.356 33.8826 189.404 34.0809C189.454 34.2855 189.479 34.4954 189.479 34.7059V36.2934H189.054C189.088 35.9493 189.043 35.6021 188.924 35.2774C188.805 34.9528 188.615 34.6592 188.366 34.4184C187.805 33.9959 187.111 33.7876 186.41 33.8309H182.466V39.3747H188.185V40.2247H182.466V46.1559H186.173C186.959 46.19 187.74 46.0062 188.429 45.6247C189.053 45.1843 189.516 44.5523 189.748 43.8247L190.173 43.9309L189.429 45.9434C189.328 46.2533 189.134 46.5241 188.873 46.7184C188.567 46.9182 188.206 47.0166 187.841 46.9997H180.535V35.5559C180.556 35.0307 180.467 34.5069 180.273 34.0184C180.098 33.6309 179.681 33.4372 179.023 33.4372H178.598V33.0122H187.679Z" fill="white"/>
<path d="M203.874 46.9872C203.599 47.0619 203.315 47.0977 203.03 47.0935C202.749 47.0908 202.469 47.0636 202.193 47.0122C201.848 46.9461 201.518 46.8191 201.218 46.6372C200.849 46.416 200.52 46.1351 200.243 45.806C199.891 45.3799 199.616 44.8955 199.43 44.3747L198.899 42.9997H192.968L191.274 47.0185H190.324L196.249 33.0435H196.874L201.549 44.3747C201.718 44.7685 201.874 45.106 202.024 45.381C202.152 45.6286 202.321 45.8526 202.524 46.0435C202.692 46.2094 202.892 46.3391 203.112 46.4247C203.356 46.5191 203.613 46.576 203.874 46.5935V46.9872ZM193.305 42.1185H198.493L195.955 35.9747L193.305 42.1185Z" fill="white"/>
<path d="M213.174 43.4309C213.18 43.9834 213.076 44.5316 212.868 45.0434C212.667 45.5181 212.366 45.9443 211.987 46.2934C211.583 46.6492 211.111 46.9192 210.599 47.0871C210.008 47.2772 209.389 47.37 208.768 47.3621C208.188 47.3613 207.61 47.3005 207.043 47.1809C206.508 47.0744 205.99 46.9001 205.499 46.6621C205.077 46.4637 204.695 46.1881 204.374 45.8496C204.099 45.5617 203.945 45.1792 203.943 44.7809V42.4996H204.362C204.469 43.6511 204.962 44.7325 205.762 45.5684C206.554 46.2257 207.565 46.5585 208.593 46.4996C208.946 46.5025 209.297 46.4563 209.637 46.3621C209.952 46.2813 210.249 46.1413 210.512 45.9496C210.768 45.7739 210.981 45.5433 211.137 45.2746C211.295 44.9904 211.375 44.6689 211.368 44.3434C211.382 43.7597 211.174 43.1924 210.787 42.7559C210.278 42.2221 209.69 41.7709 209.043 41.4184L206.43 39.8746C205.682 39.4737 205.028 38.9176 204.512 38.2434C204.12 37.6534 203.917 36.9579 203.93 36.2496C203.92 35.7405 204.02 35.2351 204.224 34.7684C204.418 34.3349 204.703 33.9488 205.062 33.6371C205.437 33.3083 205.875 33.0595 206.349 32.9059C206.893 32.7266 207.464 32.64 208.037 32.6496C208.574 32.6514 209.11 32.7079 209.637 32.8184C210.146 32.9205 210.64 33.0885 211.105 33.3184C211.513 33.5149 211.88 33.7863 212.187 34.1184C212.459 34.4103 212.611 34.7943 212.612 35.1934V37.4371H212.187C212.083 36.2902 211.596 35.2116 210.805 34.3746C210.019 33.731 209.02 33.4074 208.005 33.4684C207.7 33.4663 207.395 33.5148 207.105 33.6121C206.822 33.706 206.557 33.8499 206.324 34.0371C206.098 34.2224 205.913 34.4522 205.78 34.7121C205.637 34.9878 205.564 35.295 205.568 35.6059C205.565 35.8852 205.619 36.1622 205.726 36.42C205.834 36.6779 205.993 36.9112 206.193 37.1059C206.414 37.3419 206.661 37.5516 206.93 37.7309C207.23 37.9371 207.555 38.1496 207.949 38.3559L210.555 39.8996C210.961 40.137 211.353 40.3957 211.73 40.6746C212.036 40.8959 212.31 41.1589 212.543 41.4559C212.751 41.7197 212.912 42.0179 213.018 42.3371C213.132 42.6901 213.185 43.06 213.174 43.4309Z" fill="white"/>
<path d="M214.556 39.9998C214.547 39.0146 214.701 38.0347 215.012 37.0998C215.29 36.2335 215.736 35.4306 216.325 34.7373C216.894 34.0685 217.602 33.5312 218.4 33.1623C219.257 32.7832 220.184 32.5874 221.121 32.5874C222.059 32.5874 222.986 32.7832 223.843 33.1623C224.64 33.5329 225.347 34.07 225.918 34.7373C226.502 35.4338 226.948 36.2357 227.231 37.0998C227.839 38.9895 227.839 41.0225 227.231 42.9123C226.945 43.7713 226.5 44.5686 225.918 45.2623C225.349 45.9436 224.639 46.4936 223.837 46.8748C222.979 47.2497 222.052 47.4433 221.115 47.4433C220.178 47.4433 219.252 47.2497 218.393 46.8748C217.596 46.5035 216.888 45.9641 216.318 45.2935C215.732 44.6029 215.286 43.8047 215.006 42.9435C214.692 41.9943 214.54 40.9993 214.556 39.9998ZM225.568 39.9998C225.579 39.0843 225.476 38.1711 225.262 37.281C225.089 36.5442 224.791 35.8424 224.381 35.206C224.032 34.6602 223.553 34.2093 222.987 33.8935C222.408 33.5907 221.765 33.4325 221.112 33.4325C220.459 33.4325 219.816 33.5907 219.237 33.8935C218.671 34.2093 218.192 34.6602 217.843 35.206C217.433 35.8424 217.135 36.5442 216.962 37.281C216.554 39.0726 216.554 40.9331 216.962 42.7248C217.138 43.4608 217.436 44.1622 217.843 44.7998C218.196 45.3427 218.674 45.7928 219.237 46.1123C219.817 46.411 220.46 46.5669 221.112 46.5669C221.764 46.5669 222.407 46.411 222.987 46.1123C223.55 45.7928 224.028 45.3427 224.381 44.7998C224.788 44.1622 225.086 43.4608 225.262 42.7248C225.474 41.8323 225.575 40.917 225.562 39.9998H225.568Z" fill="white"/>
<path d="M229.904 35.5558C229.929 35.0138 229.787 34.4772 229.498 34.0183C229.315 33.8056 229.082 33.6412 228.82 33.5398C228.559 33.4385 228.276 33.4032 227.998 33.4371H227.785V33.0121H229.16C229.747 32.9893 230.332 33.1049 230.866 33.3496C231.31 33.5766 231.702 33.8938 232.016 34.2808L239.429 43.4933V33.0121H240.279V47.1996H239.854L230.748 35.8683V46.9871H229.904V35.5558Z" fill="white"/>
<path d="M251.523 43.4311C251.532 43.9839 251.428 44.5326 251.217 45.0436C251.016 45.5183 250.715 45.9445 250.336 46.2936C249.925 46.6471 249.447 46.913 248.93 47.0748C248.338 47.2648 247.72 47.3577 247.098 47.3498C246.519 47.3486 245.941 47.2879 245.373 47.1686C244.839 47.0611 244.32 46.8869 243.83 46.6498C243.407 46.4514 243.026 46.1758 242.705 45.8373C242.429 45.5494 242.275 45.1669 242.273 44.7686V42.4998H242.692C242.802 43.6507 243.295 44.7313 244.092 45.5686C244.885 46.2237 245.896 46.5562 246.923 46.4998C247.276 46.5027 247.627 46.4565 247.967 46.3623C248.282 46.2815 248.579 46.1415 248.842 45.9498C249.096 45.7718 249.309 45.5417 249.467 45.2748C249.624 44.9897 249.703 44.6688 249.698 44.3436C249.711 43.7591 249.501 43.1917 249.111 42.7561C248.603 42.2223 248.014 41.7711 247.367 41.4186L244.761 39.8748C244.014 39.4722 243.36 38.9163 242.842 38.2436C242.529 37.7219 242.343 37.1344 242.297 36.5278C242.252 35.9212 242.348 35.3124 242.58 34.7498C242.773 34.3163 243.059 33.9303 243.417 33.6186C243.794 33.2897 244.235 33.0409 244.711 32.8873C245.253 32.7081 245.821 32.6215 246.392 32.6311C246.93 32.6325 247.466 32.6891 247.992 32.7998C248.501 32.9019 248.995 33.07 249.461 33.2998C249.868 33.4963 250.235 33.7677 250.542 34.0998C250.814 34.3917 250.966 34.7757 250.967 35.1748V37.4373H250.542C250.444 36.2928 249.964 35.2144 249.18 34.3748C248.394 33.7301 247.394 33.4064 246.38 33.4686C246.074 33.4665 245.77 33.515 245.48 33.6123C245.196 33.7072 244.932 33.851 244.698 34.0373C244.473 34.2226 244.288 34.4524 244.155 34.7123C244.003 34.9925 243.926 35.3065 243.93 35.6248C243.927 35.9042 243.981 36.1811 244.088 36.439C244.196 36.6968 244.354 36.9302 244.555 37.1248C244.776 37.3609 245.023 37.5706 245.292 37.7498C245.592 37.9561 245.917 38.1686 246.311 38.3748L248.93 39.9373C249.335 40.1747 249.727 40.4334 250.105 40.7123C250.411 40.9336 250.684 41.1966 250.917 41.4936C251.125 41.7587 251.288 42.0565 251.398 42.3748C251.498 42.7176 251.54 43.0745 251.523 43.4311Z" fill="white"/>
<path d="M88.7172 69.9374C88.1381 69.9376 87.5603 69.8811 86.9922 69.7687C86.4602 69.6693 85.9434 69.5012 85.4547 69.2687C85.0382 69.0755 84.6643 68.8015 84.3547 68.4624C84.0817 68.1735 83.9297 67.7911 83.9297 67.3937V64.8937H84.5547C84.7797 66.3604 85.2318 67.402 85.9109 68.0187C86.6858 68.6766 87.6835 69.0122 88.6984 68.9562C89.3796 68.9904 90.0539 68.8065 90.6234 68.4312C90.864 68.2582 91.0568 68.027 91.1836 67.7591C91.3104 67.4913 91.3671 67.1957 91.3484 66.8999C91.3573 66.6218 91.3104 66.3447 91.2106 66.085C91.1107 65.8252 90.96 65.5881 90.7672 65.3874C90.2926 64.9006 89.7544 64.4802 89.1672 64.1374L86.5672 62.5687C85.7685 62.1464 85.0728 61.5531 84.5297 60.8312C84.1324 60.2224 83.9277 59.508 83.9422 58.7812C83.9216 58.2682 84.0278 57.7581 84.2513 57.2959C84.4747 56.8337 84.8086 56.4337 85.2234 56.1312C86.238 55.4321 87.4557 55.0892 88.6859 55.1562C89.265 55.1566 89.8427 55.2131 90.4109 55.3249C90.9407 55.4253 91.4553 55.5934 91.9422 55.8249C92.3605 56.0181 92.7365 56.2921 93.0484 56.6312C93.3186 56.9214 93.4683 57.3035 93.4672 57.6999V60.1999H92.8422C92.5984 58.7312 92.1547 57.6999 91.4922 57.0749C90.7873 56.4337 89.8565 56.0988 88.9047 56.1437C88.2585 56.108 87.6206 56.3029 87.1047 56.6937C86.8878 56.8772 86.7155 57.1076 86.6008 57.3674C86.486 57.6273 86.4318 57.9098 86.4422 58.1937C86.4379 58.467 86.4933 58.7379 86.6047 58.9874C86.7153 59.2199 86.8655 59.4313 87.0484 59.6124C87.2574 59.8252 87.4878 60.0158 87.7359 60.1812C88.0047 60.3687 88.3109 60.5562 88.6484 60.7562L91.2547 62.2999C92.0466 62.7296 92.7591 63.2919 93.3609 63.9624C93.8096 64.5235 94.0443 65.2256 94.0234 65.9437C94.0444 66.4993 93.9302 67.0518 93.6907 67.5536C93.4512 68.0555 93.0936 68.4917 92.6484 68.8249C91.495 69.6157 90.114 70.0065 88.7172 69.9374Z" fill="#E00612"/>
<path d="M106.804 60.1126C106.623 59.0006 106.109 57.9697 105.329 57.1564C104.949 56.8083 104.504 56.5387 104.019 56.3628C103.534 56.1869 103.019 56.1083 102.504 56.1314C101.882 56.1267 101.263 56.2347 100.679 56.4501C100.099 56.6761 99.5876 57.0512 99.1981 57.5376C98.7253 58.146 98.3847 58.8464 98.1981 59.5939C97.9319 60.6412 97.8099 61.7199 97.8356 62.8001C97.8346 63.5884 97.9206 64.3744 98.0918 65.1439C98.2453 65.8524 98.5202 66.5291 98.9043 67.1439C99.2718 67.7118 99.766 68.1867 100.348 68.5314C101.005 68.8942 101.748 69.0733 102.498 69.0501C103.456 69.0563 104.395 68.7873 105.204 68.2751C106.073 67.7256 106.77 66.944 107.217 66.0189L107.961 66.5939C107.398 67.6597 106.555 68.552 105.523 69.1751C104.397 69.7642 103.137 70.0486 101.867 70.0001C100.848 70.0191 99.8363 69.832 98.8918 69.4501C98.0585 69.1071 97.3099 68.5867 96.6981 67.9251C96.0957 67.2576 95.6344 66.4753 95.3418 65.6251C95.0281 64.7123 94.8717 63.7528 94.8793 62.7876C94.8692 61.7654 95.0494 60.7502 95.4106 59.7939C95.7405 58.9037 96.2345 58.0833 96.8668 57.3751C97.492 56.6941 98.2462 56.1439 99.0856 55.7564C99.9555 55.3464 100.905 55.133 101.867 55.1314C102.959 55.092 104.049 55.2682 105.073 55.6501C105.76 55.9197 106.379 56.338 106.886 56.8751C107.184 57.2899 107.353 57.7833 107.373 58.2939C107.417 58.8689 107.436 59.4689 107.436 60.0939L106.804 60.1126Z" fill="#E00612"/>
<path d="M118.237 55.6251H120.993V66.8751C120.973 67.4002 121.063 67.9237 121.255 68.4126C121.43 68.8001 121.847 68.9938 122.505 68.9938H122.718V69.6188H120.174C119.863 69.6292 119.552 69.587 119.255 69.4938C119.002 69.4222 118.782 69.2655 118.63 69.0501C118.465 68.7938 118.36 68.5031 118.324 68.2001C118.261 67.7593 118.231 67.3142 118.237 66.8688V62.8001H112.518V69.5751H109.768V58.3563C109.79 57.8305 109.698 57.3061 109.499 56.8188C109.324 56.4313 108.918 56.2376 108.287 56.2376H108.074V55.6251H110.612C110.926 55.6187 111.238 55.6652 111.537 55.7626C111.788 55.8447 112.007 56.0045 112.162 56.2188C112.325 56.4764 112.429 56.7665 112.468 57.0688C112.529 57.5036 112.556 57.9424 112.549 58.3813V61.8751H118.268L118.237 55.6251Z" fill="#E00612"/>
<path d="M122.938 62.5875C122.93 61.5927 123.099 60.6044 123.438 59.6688C123.749 58.7985 124.231 57.9994 124.856 57.3188C125.474 56.65 126.223 56.1159 127.056 55.75C127.966 55.3706 128.943 55.1753 129.928 55.1753C130.914 55.1753 131.89 55.3706 132.8 55.75C133.631 56.1146 134.376 56.649 134.988 57.3188C135.609 58.0013 136.089 58.8 136.4 59.6688C137.058 61.5611 137.058 63.6202 136.4 65.5125C136.087 66.3806 135.608 67.179 134.988 67.8625C134.374 68.5304 133.63 69.0645 132.8 69.4313C130.961 70.1893 128.896 70.1893 127.056 69.4313C126.224 69.0632 125.476 68.5294 124.856 67.8625C124.233 67.1809 123.75 66.3821 123.438 65.5125C123.1 64.5746 122.931 63.5844 122.938 62.5875ZM133.975 62.5875C133.975 60.525 133.619 58.9375 132.913 57.8125C132.603 57.2988 132.166 56.8738 131.643 56.5789C131.121 56.2839 130.531 56.1288 129.932 56.1288C129.332 56.1288 128.742 56.2839 128.22 56.5789C127.697 56.8738 127.26 57.2988 126.95 57.8125C126.256 58.9375 125.906 60.525 125.906 62.5875C125.906 64.65 126.256 66.2438 126.95 67.3625C127.259 67.8778 127.696 68.3042 128.218 68.6003C128.741 68.8965 129.331 69.0521 129.932 69.0521C130.532 69.0521 131.122 68.8965 131.645 68.6003C132.167 68.3042 132.604 67.8778 132.913 67.3625C133.617 66.2459 133.971 64.6542 133.975 62.5875Z" fill="#E00612"/>
<path d="M138.197 62.5878C138.188 61.5933 138.355 60.605 138.691 59.669C138.991 58.8018 139.46 58.0029 140.072 57.319C140.691 56.6488 141.442 56.1145 142.278 55.7503C143.187 55.3707 144.162 55.1753 145.147 55.1753C146.132 55.1753 147.107 55.3707 148.016 55.7503C148.847 56.1148 149.592 56.6492 150.203 57.319C150.827 57.9996 151.308 58.7988 151.616 59.669C152.274 61.5614 152.274 63.6205 151.616 65.5128C151.306 66.382 150.825 67.1808 150.203 67.8628C149.59 68.5307 148.845 69.0648 148.016 69.4315C146.179 70.192 144.115 70.192 142.278 69.4315C141.443 69.0651 140.693 68.5312 140.072 67.8628C139.448 67.1812 138.966 66.3824 138.653 65.5128C138.331 64.5722 138.176 63.582 138.197 62.5878ZM149.228 62.5878C149.228 60.5253 148.872 58.9378 148.166 57.8128C147.856 57.3005 147.419 56.8768 146.897 56.5828C146.375 56.2888 145.787 56.1343 145.188 56.1343C144.589 56.1343 144 56.2888 143.479 56.5828C142.957 56.8768 142.52 57.3005 142.21 57.8128C141.51 58.9378 141.16 60.5253 141.16 62.5878C141.16 64.6503 141.51 66.244 142.21 67.3628C142.517 67.8781 142.954 68.3048 143.476 68.601C143.998 68.8973 144.588 69.0531 145.188 69.0531C145.788 69.0531 146.378 68.8973 146.9 68.601C147.422 68.3048 147.858 67.8781 148.166 67.3628C148.853 66.2461 149.197 64.6545 149.197 62.5878H149.228Z" fill="#E00612"/>
<path d="M164.128 68.6251V69.5751H154.066V58.3563C154.087 57.8311 153.997 57.3073 153.803 56.8188C153.628 56.4397 153.218 56.2501 152.572 56.2501H152.359V55.6251H154.903C155.215 55.6187 155.526 55.6652 155.822 55.7626C156.062 55.8504 156.269 56.0097 156.416 56.2188C156.581 56.4751 156.686 56.7658 156.722 57.0688C156.785 57.5034 156.814 57.9422 156.809 58.3813V68.6251H164.128Z" fill="#E00612"/>
</g>
<defs>
<linearGradient id="paint0_linear" x1="0.000185233" y1="40.011" x2="76.9386" y2="40.011" gradientUnits="userSpaceOnUse">
<stop stop-color="#F18A00"/>
<stop offset="0.52" stop-color="#AE0F0A"/>
<stop offset="0.73" stop-color="#E30613"/>
<stop offset="0.97" stop-color="#5A0A00"/>
</linearGradient>
<clipPath id="clip0">
<rect width="167.594" height="60" fill="white" transform="translate(83.9297 10)"/>
</clipPath>
</defs>
</svg>
