<svg width="720" height="748" viewBox="0 0 720 748" fill="none" xmlns="http://www.w3.org/2000/svg">
<path d="M718.909 397.526C718.909 397.098 700.077 354.338 693.735 320.487C683.113 263.409 676.81 255.744 662.997 238.78L659.846 234.889C645.81 218.33 628.615 204.732 609.265 194.892C615.802 197.071 622.299 199.405 628.719 201.973C629.752 202.371 630.886 202.426 631.953 202.132C633.02 201.838 633.965 201.21 634.648 200.339C635.332 199.468 635.718 198.401 635.75 197.295C635.783 196.188 635.459 195.101 634.828 194.191C606.386 155.283 557.984 108.593 486.276 101.59C505.186 81.7467 518.376 48.0522 506.275 3.89143C506.005 2.82733 505.403 1.87684 504.557 1.1774C503.71 0.47796 502.663 0.0658314 501.567 0.000607941H501.334C500.287 -0.0155027 499.26 0.288931 498.39 0.873092C497.521 1.45725 496.851 2.29322 496.47 3.2689C483.786 35.2125 444.878 49.5307 403.674 64.7439C342.9 87.2328 274.071 112.64 287.3 202.712C263.955 228.392 233.684 262.787 233.373 263.176C232.597 264.069 232.151 265.201 232.108 266.383C232.066 267.566 232.43 268.727 233.14 269.673C233.861 270.617 234.88 271.289 236.032 271.578C237.184 271.868 238.4 271.759 239.482 271.269C265.002 259.914 291.681 251.369 319.049 245.784C348.697 265.238 397.721 256.756 425.074 249.675C442.96 280.941 455.765 314.851 463.009 350.135L463.282 352.237C466.272 376.604 465.931 401.264 462.27 425.54C448.341 455.46 420.716 465.382 400.017 468.339C345.545 476.12 273.877 448.418 236.603 404.957C216.941 382.77 202.835 356.227 195.447 327.517C188.06 298.807 187.603 268.752 194.115 239.831C209.133 171.391 259.208 111.356 327.998 79.8013C363.015 63.7711 406.67 40.5819 416.047 21.0499C416.344 20.4347 416.515 19.7669 416.553 19.085C416.59 18.403 416.492 17.7205 416.264 17.0767C416.036 16.4328 415.683 15.8405 415.225 15.3338C414.767 14.8271 414.213 14.416 413.596 14.1243C412.906 13.7869 412.147 13.6137 411.378 13.6185C410.404 13.6162 409.449 13.8888 408.623 14.405C407.797 14.9213 407.134 15.6601 406.709 16.5366C404.219 21.7503 379.24 26.8473 359.202 30.9715C347.53 33.3449 335.624 35.7962 323.718 38.7532C201.78 69.6074 168.085 112.679 138.437 150.653L136.998 152.443C87.195 216.213 68.6358 302.862 87.4285 384.336C99.8814 440.793 131.35 491.258 176.567 527.285C97.4668 487.131 63.7334 418.342 65.3675 306.13C66.1846 253.41 86.1056 196.72 92.3698 185.826C93.056 184.634 93.2407 183.219 92.8831 181.891C92.5256 180.563 91.6552 179.431 90.4633 178.745C89.2714 178.059 87.8558 177.874 86.5278 178.232C85.1998 178.589 84.0682 179.46 83.382 180.651C79.9581 186.565 75.0946 193.413 69.414 201.351C44.9018 235.745 7.78337 287.766 0.429722 381.496C-2.76075 423.75 12.1022 481.178 35.4471 518.024C73.0713 576.931 144.935 610.937 214.191 619.186C211.623 619.186 209.094 619.186 206.41 619.186C151.277 619.186 53.0336 589.265 30.2334 547.945C29.5678 546.743 28.4519 545.854 27.1312 545.475C25.8105 545.095 24.3932 545.256 23.191 545.922C21.9888 546.587 21.1003 547.703 20.7209 549.024C20.3415 550.344 20.5022 551.762 21.1678 552.964C45.7967 597.553 82.2148 647.667 167.307 683.423C209.728 700.198 254.874 709.022 300.49 709.453C314.195 709.629 327.879 708.325 341.304 705.562C329.009 716.456 315.936 727.351 301.852 738.789C300.947 739.506 300.312 740.507 300.05 741.631C299.789 742.755 299.916 743.934 300.412 744.976C300.828 745.873 301.493 746.632 302.327 747.163C303.162 747.694 304.131 747.975 305.12 747.972C305.43 748.009 305.743 748.009 306.054 747.972C377.022 734.549 495.77 712.099 541.215 616.462C547.057 603.087 552.035 589.35 556.117 575.336C557.097 615.56 552.913 655.743 543.666 694.901C543.439 695.95 543.541 697.044 543.959 698.033C544.377 699.022 545.09 699.857 546 700.426C546.822 700.924 547.763 701.193 548.724 701.204C549.927 701.202 551.094 700.791 552.031 700.037C632.338 634.088 680.973 541.447 679.028 458.145C677.03 419.236 669.819 385.659 657.395 357.411C659.068 359.668 660.741 362.158 662.492 364.804C671.557 378.5 684.008 397.214 712.878 404.685C713.304 404.741 713.736 404.741 714.162 404.685C714.903 404.672 715.632 404.502 716.303 404.187C716.973 403.872 717.57 403.418 718.053 402.856C718.676 402.135 719.086 401.254 719.237 400.312C719.389 399.371 719.275 398.406 718.909 397.526ZM651.792 241.426L654.982 245.317C667.628 260.88 673.425 267.728 683.541 322.16C688.117 343.754 694.561 364.909 702.801 385.386L568.801 187.577C601.445 201.234 631.521 216.603 651.792 241.426ZM612.183 309.126C629.541 326.237 642.917 346.96 651.364 369.823L546.701 411.844C546.701 411.377 546.39 410.91 546.273 410.443L549.541 269.907C572.258 279.854 593.37 293.124 612.183 309.282V309.126ZM563.82 539.93C563.47 536.622 563.159 533.86 563.003 531.642V529.191L664.165 501.411L559.113 672.023C570.824 605.062 566.194 561.952 563.82 540.085V539.93ZM477.6 676.031L366.284 696.652C368.268 694.784 370.174 692.761 372.081 690.971L374.376 688.831C408.071 654.709 434.334 616.851 454.722 560.162C457.718 551.836 460.441 543.859 463.009 536L482.463 672.451C480.868 673.618 479.234 674.824 477.6 676.031ZM278.312 455.071L375.194 567.477C360.902 577.732 345.611 586.518 329.554 593.701L231.661 552.692L278.312 455.071ZM419.082 541.992C446.947 510.623 465.313 471.974 472.036 430.559C471.297 474.408 461.142 511.566 444.8 556.582C439.95 570.03 434.364 583.2 428.07 596.035L321.5 608.253C358.755 594.089 392.175 571.396 419.082 541.992ZM473.009 345.856C472.581 344.066 472.192 342.315 471.803 340.564L536.157 412.116C536.935 414.568 537.635 417.019 538.336 419.47L472.192 505.068C479.033 479.073 482.485 452.303 482.463 425.423C481.809 399.169 478.669 373.035 473.087 347.373L473.009 345.856ZM468.418 518.258L540.009 425.54C548.18 454.144 552.434 483.724 552.654 513.472C552.654 517.363 552.654 521.254 552.654 524.639L467.056 522.81C467.562 521.293 467.99 519.775 468.418 518.258ZM562.887 524.133C562.887 520.709 562.887 517.168 562.887 513.472C562.697 483.211 558.444 453.112 550.241 423.983L663.075 496.43L562.887 524.133ZM541.487 396.203C520.516 337.841 485.654 284.809 443.322 249.869C447.213 249.869 450.87 250.141 453.71 250.141C484.831 250.043 515.67 256.044 544.483 267.806L541.487 396.203ZM555.144 181.974V182.208C555.127 182.389 555.127 182.571 555.144 182.752L547.674 256.678L483.981 145.011L555.144 181.974ZM615.335 186.215C596.628 179.831 577.399 175.092 557.867 172.053L428.537 109.449L475.927 111.434C540.242 114.274 585.998 150.848 615.335 186.215ZM407.293 74.4709C445.073 60.5029 481.024 47.2352 499.155 20.3107C504.602 54.7444 492.813 80.7351 477.211 96.1039C476.867 96.3798 476.542 96.6788 476.238 96.9987L475.654 97.5435C470.713 101.123 380.407 100.734 346.518 100.462C364.494 90.2676 385.699 82.4471 407.293 74.4709ZM323.134 236.096C322.006 235.297 320.608 234.975 319.244 235.201C297.582 239.225 276.348 245.282 255.823 253.293C267.145 240.453 283.059 222.517 296.56 207.887C297.091 207.305 297.485 206.612 297.714 205.858C297.943 205.104 298.001 204.308 297.883 203.529C289.712 152.949 308.194 125.09 337.997 105.636L415.113 108.866L475.577 140.265L541.098 255.083C513.128 244.732 483.534 239.461 453.71 239.519C450.948 239.519 447.368 239.519 443.594 239.208C439.236 239.208 434.529 238.897 430.365 238.897H427.72C426.358 238.897 425.035 238.897 423.829 238.897H422.934C402.079 244.967 350.409 255.55 323.134 236.096ZM531.721 399.743L468.962 329.942C463.116 307.623 455.142 285.917 445.15 265.121C482.463 298.777 512.812 347.14 531.721 399.743ZM401.379 478.766C422.296 476.387 441.78 466.96 456.628 452.036C448.084 482.848 432.591 511.292 411.339 535.183C403.312 544.129 394.567 552.405 385.193 559.929L396.476 479.194C398.033 479.038 399.745 478.766 401.379 478.766ZM391.185 479.817L379.357 564.364L285.199 455.421C318.738 472.58 357.412 482.034 391.185 479.739V479.817ZM272.009 447.639L274.733 450.83L228.743 547.206L207.344 382.546C213.567 392.884 220.661 402.673 228.549 411.805C241.066 425.956 255.732 438.049 272.009 447.639ZM200.262 369.823L114.314 418.458L180.458 258.312C175.854 296.624 182.748 335.439 200.262 369.823ZM185.322 232.477L110.306 223.917L228.51 144.895C208.03 170.615 193.303 200.427 185.322 232.321V232.477ZM243.684 127.425L210.106 95.2479L212.946 93.4581L303.213 81.0075C281.162 93.47 261.064 109.11 243.567 127.425H243.684ZM326.247 48.8693C337.919 45.9123 349.786 43.5 361.264 41.0877C371.38 39.0255 380.057 37.1968 387.333 35.4071C367.193 48.9409 345.892 60.6594 323.679 70.4244C321.15 71.5917 318.738 72.8368 316.248 74.0818L224.269 86.727C249.014 73.0702 281.191 60.2694 326.247 48.8693ZM145.168 158.941L146.608 157.112C162.171 137.269 177.734 117.114 205.748 98.1271L240.065 131.043L111.474 216.641C120.09 195.995 131.422 176.591 145.168 158.941ZM106.921 228.431L183.765 237.185L108.945 418.264C104.311 406.465 100.54 394.346 97.6613 382.001C85.9252 330.985 89.1402 277.667 106.921 228.431ZM111.746 425.54L201.235 374.959L223.296 544.91C173.272 519.423 133.79 477.173 111.746 425.54ZM212.907 553.548L120.617 578.021L109.373 488.804C134.43 517.246 168.669 538.49 212.791 553.548H212.907ZM81.7089 447.639L11.9855 370.29L57.8582 364.454C61.0156 393.338 69.0818 421.471 81.7089 447.639ZM55.2125 306.014C54.8594 323.838 55.6261 341.667 57.5081 359.396L12.5691 365.076C18.7162 312.803 38.064 262.954 68.7914 220.221C60.5952 248.109 55.9671 276.923 55.0179 305.975L55.2125 306.014ZM44.4738 512.499C22.0238 477.482 7.939 422.583 10.9738 382.313C10.9738 380.523 11.324 378.85 11.4797 377.06L93.8094 468.611C96.8053 473.085 99.9958 477.443 103.381 481.645L115.442 577.204C86.7256 561.849 62.2724 539.602 44.2793 512.461L44.4738 512.499ZM124.508 582.145L221.778 556.582L225.125 557.633C226.417 558.033 227.815 557.907 229.015 557.283L322.94 596.541C315.703 599.576 308.232 602.261 300.645 604.712C248.508 618.096 180.691 610.354 124.508 582.145ZM295.198 617.163L260.687 696.38L257.535 695.99L107.349 610.704C141.978 622.921 179.524 629.847 206.604 629.847C236.619 629.857 266.484 625.626 295.315 617.279L295.198 617.163ZM54.7456 586.62L243.411 693.928C218.658 689.993 194.431 683.257 171.198 673.852C112.836 649.262 78.5963 618.602 54.8623 586.736L54.7456 586.62ZM363.443 684.629C349.164 697.858 309.555 701.554 265.745 696.885L301.501 615.567L425.424 601.366C409.444 632.207 388.579 660.259 363.638 684.435L363.443 684.629ZM359.552 702.916L467.523 682.917C422.817 711.865 367.762 725.094 324.224 733.731C336.752 723.46 348.502 713.305 359.552 703.033V702.916ZM531.76 612.027C521.221 633.933 505.968 653.239 487.093 668.56L466.9 526.973L552.498 528.841C551.37 556.777 546.934 576.27 531.76 612.143V612.027ZM560.98 678.171L662.608 513.394C648.991 571.834 612.961 630.819 560.98 678.326V678.171ZM666.499 492.54L548.179 416.513L653.232 374.414C662.515 401.473 667.759 429.751 668.795 458.339C668.938 469.834 668.17 481.322 666.499 492.695V492.54ZM671.129 358.851C668.95 355.583 666.888 352.47 664.709 349.63C651.093 331.937 635.652 315.727 618.642 301.267C617.358 300.022 616.074 298.738 614.751 297.571H613.934C595.312 282.192 574.633 269.489 552.498 259.83L559.735 188.433L697.626 387.215C684.786 379.511 677.627 368.811 671.129 359.007V358.851Z" fill="white" fill-opacity="0.35"/>
<path d="M363.238 178.863C362.398 178.3 361.408 178.002 360.397 178.007C359.54 178.005 358.695 178.217 357.941 178.625C357.187 179.032 356.546 179.623 356.079 180.341C354.503 183.186 352.372 185.685 349.812 187.69C347.252 189.695 344.316 191.165 341.177 192.014C336.587 192.762 331.883 191.807 327.948 189.329C327.394 188.936 326.767 188.655 326.104 188.504C325.442 188.353 324.756 188.333 324.085 188.447C323.415 188.561 322.774 188.806 322.198 189.167C321.623 189.529 321.124 190 320.73 190.555C320.337 191.109 320.057 191.736 319.905 192.398C319.754 193.061 319.735 193.747 319.848 194.417C319.962 195.088 320.207 195.729 320.569 196.304C320.93 196.88 321.402 197.379 321.956 197.772C326.77 200.875 332.376 202.523 338.103 202.519C339.734 202.526 341.362 202.383 342.966 202.091C347.509 201.031 351.784 199.047 355.526 196.262C359.268 193.478 362.396 189.952 364.716 185.905C365.432 184.769 365.677 183.399 365.401 182.085C365.125 180.771 364.35 179.616 363.238 178.863Z" fill="white" fill-opacity="0.35"/>
</svg>
