<svg width="42" height="20" viewBox="0 0 42 20" fill="none" xmlns="http://www.w3.org/2000/svg">
<path d="M1.03948e-06 10.0001C1.03948e-06 10.6799 0.551072 11.2311 1.23011 11.2302L36.8234 11.2301L30.1684 17.8851C29.6848 18.3687 29.6848 19.1537 30.1684 19.6373C30.652 20.1209 31.437 20.1209 31.9206 19.6373L40.6817 10.8761C40.9139 10.6439 41.048 10.3294 41.0479 10C41.0478 9.67057 40.9139 9.35607 40.6817 9.1239L31.9206 0.362675C31.4369 -0.120929 30.652 -0.120854 30.1684 0.362675C29.6848 0.846278 29.6848 1.63129 30.1684 2.11489L36.8234 8.76984L1.2301 8.76999C0.550202 8.76999 -0.000873507 9.32105 1.03948e-06 10.0001Z" fill="#1D1D1B"/>
</svg>
