<?xml version="1.0" encoding="UTF-8"?> <svg xmlns="http://www.w3.org/2000/svg" width="472" height="458" viewBox="0 0 472 458" fill="none"><path d="M84.8082 39.851C44.9632 73.095 17.1862 118.546 5.77623 169.168C-5.63437 219.791 -0.0416698 272.763 21.6882 319.886C43.4182 367.01 80.0742 405.657 125.983 429.848C171.892 454.039 224.494 462.424 275.649 453.706C326.804 444.988 373.659 419.652 408.964 381.62C444.268 343.589 466.053 294.981 470.948 243.32C475.842 191.659 463.573 139.825 436.039 95.839C408.505 51.854 367.241 18.17 318.634 0L294.167 65.454C328.382 78.244 357.428 101.954 376.809 132.916C396.191 163.878 404.827 200.364 401.382 236.729C397.937 273.094 382.602 307.309 357.751 334.08C332.9 360.851 299.918 378.685 263.909 384.822C227.901 390.959 190.874 385.056 158.558 368.028C126.242 351 100.44 323.795 85.1442 290.625C69.8482 257.454 65.9112 220.167 73.9432 184.533C81.9752 148.899 101.527 116.906 129.574 93.505L84.8082 39.851Z" fill="#E30613"></path></svg> 