<svg width="47" height="38" viewBox="0 0 47 38" fill="none" xmlns="http://www.w3.org/2000/svg">
<g filter="url(#filter0_d)">
<path fill-rule="evenodd" clip-rule="evenodd" d="M19.6101 19.987C20.2869 20.7316 21.2159 22.5533 21.5148 23.512C22.872 27.8642 21.3278 29.2929 21.8373 30.3689C22.7281 32.2509 27.3779 34.5189 30.4444 29.2005C31.708 27.009 32.9992 24.4019 34.9196 22.6903C35.9359 21.7845 36.9518 21.0383 38.3067 20.4286C40.167 19.5914 43.6013 19.3254 43.7392 20.6803C43.9484 22.7366 40.671 21.726 38.4328 22.5338C35.5689 23.5673 33.5384 27.7649 32.2371 30.1164C31.5397 31.3767 30.7168 32.1881 29.6186 33.0652C27.3866 34.8483 24.4951 34.7428 21.9137 33.5297C21.652 33.4066 21.1856 33.1118 20.9163 33.0475C20.7126 33.181 20.6181 33.4133 20.3994 33.6159C19.7015 34.2627 19.0049 34.5269 17.9826 34.7527C16.3571 35.112 10.6562 35.1 8.97524 34.587C7.70717 34.2001 7.69936 33.031 9.92865 32.5665C9.61728 32.3246 9.25187 32.2743 8.86183 31.8029C8.48619 31.3492 8.47474 31.1865 8.31509 30.5742C7.58454 31.0117 7.7833 33.3418 6.56174 34.1592C6.08842 34.4758 5.0156 34.7447 4.29508 34.5123C3.49591 34.2545 3.25869 33.5755 3.32092 32.9102C6.26086 32.6913 5.57105 24.9725 5.15284 22.3403C4.60696 18.9056 3.05336 16.9779 2.57075 14.9618C2.44009 14.4164 2.39692 14.1193 2.39848 13.4667L2.47548 11.872C2.6843 11.8144 2.70376 11.9991 2.82469 12.1903C3.43019 13.148 4.57624 14.2957 5.50611 14.9483C7.83506 16.5827 11.979 17.5405 14.9228 18.3453C15.7521 18.5721 16.6218 18.8274 17.4076 19.0736C17.8186 19.2025 18.201 19.328 18.5956 19.4569C18.7646 19.5121 19.0513 19.5838 19.2062 19.6649C19.4348 19.7847 19.3957 19.8405 19.6101 19.987Z" fill="#1D1D1B"/>
</g>
<g filter="url(#filter1_d)">
<path fill-rule="evenodd" clip-rule="evenodd" d="M36.4381 12.2816C36.111 11.9121 36.191 11.6776 35.6025 11.5411C34.2287 11.2224 33.6713 12.7589 33.0991 13.9135C32.491 15.1405 31.7478 17.2801 31.4549 18.6866L31.6765 18.8241C31.5252 18.8593 31.5564 18.8361 31.4437 18.8928C31.0152 20.5372 31.0206 21.3591 30.0097 23.1757C29.474 24.1386 28.121 25.6945 26.603 25.6945C26.2194 24.2222 25.1596 22.9491 23.9038 22.0621C22.3412 20.9581 22.4376 21.0537 20.7891 20.3126C20.5712 20.2146 20.4158 20.1442 20.2161 20.068C19.9859 19.9799 19.8432 19.8663 19.6109 19.9855C19.3967 19.8389 19.4357 19.7831 19.2071 19.6634C19.052 19.5822 18.7654 19.5105 18.5965 19.4553C18.2018 19.3264 17.8194 19.2009 17.4083 19.072C16.6227 18.8259 15.753 18.5705 14.9235 18.3438C11.98 17.539 7.83596 16.5811 5.5069 14.9467C4.57696 14.2941 3.43107 13.1464 2.82568 12.1888C2.70482 11.9976 2.68507 11.8129 2.47635 11.8705C2.46208 11.3456 2.15716 10.9803 2.76024 10.3532C2.77109 10.3418 2.78583 10.3266 2.79703 10.3155C2.80854 10.3041 2.82441 10.2889 2.83592 10.2781C2.96778 10.1532 2.84385 10.2631 2.96277 10.1672C3.06326 10.4861 4.06705 11.0465 4.50987 11.2344C5.72336 11.7493 8.15001 11.6006 9.46654 11.3381L11.0349 10.8805C11.4299 10.746 11.4211 10.7506 11.4695 10.5795C11.6979 10.6662 12.5664 10.2923 12.878 10.1929C13.4189 10.0203 13.8535 9.87967 14.4151 9.71221C16.6531 9.04492 18.5238 8.44744 20.9055 8.09569C24.5535 7.55703 28.1622 8.08297 31.6071 9.19663C33.0374 9.65903 36.3927 10.6231 36.4381 12.2816Z" fill="#FF1414"/>
</g>
<path fill-rule="evenodd" clip-rule="evenodd" d="M11.469 10.5805C11.4208 10.7517 11.4296 10.7471 11.0345 10.8816L9.46625 11.3393C8.14979 11.6016 5.72312 11.7504 4.50957 11.2355C4.06682 11.0475 3.06294 10.4872 2.9625 10.1683L2.93224 9.82498C2.27452 9.68646 1.11264 8.84411 0.718935 8.37296C0.382588 7.97053 0.260983 7.77406 0.0808113 7.22597C-0.0468196 6.83775 -0.00867072 6.02847 0.0941517 5.63381C0.741611 5.49894 0.801884 5.4275 1.20287 4.56401C1.49788 3.9288 1.60699 3.6965 2.1108 3.24601C3.07539 2.38334 4.32379 2.33597 5.78006 2.33597C5.78706 2.05499 6.22303 0.176797 6.31788 0C7.6569 0.0266618 8.91473 1.93047 9.34375 3.0656C9.62126 3.7998 9.56035 3.4355 10.1763 4.24487C11.2268 5.62537 11.1402 7.43927 10.9591 9.0984C10.889 9.74071 11.3301 10.0882 11.469 10.5805Z" fill="#1D1D1B"/>
<path fill-rule="evenodd" clip-rule="evenodd" d="M36.4403 12.2831L36.5927 12.7812C36.6092 12.989 36.595 13.2538 36.5957 13.4682C36.6013 15.077 35.1868 18.1849 34.3409 19.6967C34.1689 20.0041 34.0406 20.3698 33.751 20.5432L32.8099 19.5984C32.4607 19.2834 32.1181 19.0373 31.6787 18.8256L31.457 18.6882C31.75 17.2816 32.4932 15.142 33.1013 13.915C33.6735 12.7604 34.2309 11.224 35.6047 11.5426C36.1932 11.6791 36.1132 11.9136 36.4403 12.2831Z" fill="#742727"/>
<defs>
<filter id="filter0_d" x="1.39844" y="10.8613" width="45.3503" height="27.1391" filterUnits="userSpaceOnUse" color-interpolation-filters="sRGB">
<feFlood flood-opacity="0" result="BackgroundImageFix"/>
<feColorMatrix in="SourceAlpha" type="matrix" values="0 0 0 0 0 0 0 0 0 0 0 0 0 0 0 0 0 0 127 0"/>
<feOffset dx="1" dy="1"/>
<feGaussianBlur stdDeviation="1"/>
<feColorMatrix type="matrix" values="0 0 0 0 0 0 0 0 0 0 0 0 0 0 0 0 0 0 0.2 0"/>
<feBlend mode="normal" in2="BackgroundImageFix" result="effect1_dropShadow"/>
<feBlend mode="normal" in="SourceGraphic" in2="effect1_dropShadow" result="shape"/>
</filter>
<filter id="filter1_d" x="1.38672" y="6.88281" width="38.0513" height="21.8117" filterUnits="userSpaceOnUse" color-interpolation-filters="sRGB">
<feFlood flood-opacity="0" result="BackgroundImageFix"/>
<feColorMatrix in="SourceAlpha" type="matrix" values="0 0 0 0 0 0 0 0 0 0 0 0 0 0 0 0 0 0 127 0"/>
<feOffset dx="1" dy="1"/>
<feGaussianBlur stdDeviation="1"/>
<feColorMatrix type="matrix" values="0 0 0 0 0 0 0 0 0 0 0 0 0 0 0 0 0 0 0.35 0"/>
<feBlend mode="normal" in2="BackgroundImageFix" result="effect1_dropShadow"/>
<feBlend mode="normal" in="SourceGraphic" in2="effect1_dropShadow" result="shape"/>
</filter>
</defs>
</svg>
