<svg width="42" height="20" viewBox="0 0 42 20" fill="none" xmlns="http://www.w3.org/2000/svg">
<path d="M41.0469 9.99992C41.0469 9.32006 40.4958 8.76893 39.8168 8.76983L4.22349 8.7699L10.8785 2.11495C11.3621 1.63127 11.362 0.846261 10.8785 0.362733C10.3949 -0.120944 9.6099 -0.12087 9.1263 0.362733L0.365146 9.12389C0.132976 9.35606 -0.00110717 9.67063 -0.00103084 9.99999C-0.000958334 10.3294 0.132976 10.6439 0.365146 10.8761L9.1263 19.6373C9.60998 20.1209 10.3949 20.1209 10.8785 19.6373C11.362 19.1537 11.362 18.3687 10.8785 17.8851L4.22349 11.2302L39.8168 11.23C40.4967 11.23 41.0477 10.679 41.0469 9.99992Z" fill="#1D1D1B"/>
</svg>
