<svg width="193" height="40" viewBox="0 0 193 40" fill="none" xmlns="http://www.w3.org/2000/svg">
<path d="M7.70341 10.9424H0.273438V39.3453H7.70341V10.9424Z" fill="#0D0802"/>
<path d="M41.8825 0H33.9087V40H41.8825V0Z" fill="#0D0802"/>
<path d="M74.7497 0H66.7759V40H74.7497V0Z" fill="#0D0802"/>
<path d="M101.503 11.5967H93.5288V39.9996H101.503V11.5967Z" fill="#0D0802"/>
<path d="M31.122 0.000488281H0V7.97428H31.122V0.000488281Z" fill="#D2141E"/>
<path d="M117.417 0H77.3125V7.97379H117.417V0Z" fill="#D2141E"/>
<path d="M57.3854 0L43.4165 40H51.8686L65.8375 0H57.3854Z" fill="#D2141E"/>
<path d="M128.698 0H120.724V40H128.698V0Z" fill="#0D0802"/>
<path d="M161.565 0H153.591V40H161.565V0Z" fill="#0D0802"/>
<path d="M144.201 0L130.232 40H138.677L152.653 0H144.201Z" fill="#D2141E"/>
<path d="M184.113 33.3168C180.891 33.3319 177.775 32.1718 175.347 30.0539C172.919 27.936 171.346 25.0055 170.924 21.8115H164.221C164.675 26.7734 166.968 31.3863 170.648 34.7453C174.328 38.1042 179.13 39.9666 184.113 39.9671C187.117 39.9808 190.084 39.3086 192.788 38.0015L190.573 31.6395C188.598 32.7403 186.374 33.3177 184.113 33.3168V33.3168Z" fill="#0D0802"/>
<path d="M184.109 6.68269C186.188 6.68395 188.237 7.17319 190.091 8.11102L192.548 1.88662C189.642 0.533344 186.454 -0.101004 183.251 0.0371151C180.048 0.175234 176.926 1.08177 174.147 2.6802C171.369 4.27863 169.015 6.52205 167.286 9.22111C165.557 11.9202 164.502 14.9957 164.211 18.188H170.92C171.343 14.994 172.915 12.0635 175.343 9.94563C177.771 7.82771 180.888 6.66763 184.109 6.68269Z" fill="#D2141E"/>
</svg>
