<svg width="208" height="100" viewBox="0 0 208 100" fill="none" xmlns="http://www.w3.org/2000/svg">
<path d="M64.2295 65.3921H77.4315V69.6836H71.1511V99.9999H64.2295V65.3921Z" fill="#0071BB"/>
<path d="M85.2585 86.9991L86.4471 69.6835H86.8403L88.0289 86.9991H85.2585ZM77.5928 99.9999H84.3693L85.0104 90.7899H88.2863L88.9041 99.9999H95.6899L92.0817 65.3687H81.2057L77.5928 99.9999Z" fill="#0071BB"/>
<path d="M105.603 87.8884V94.4028C105.593 94.5503 105.614 94.6982 105.665 94.8372C105.715 94.9761 105.794 95.1031 105.896 95.21C105.998 95.3169 106.121 95.4015 106.258 95.4583C106.394 95.5151 106.541 95.5429 106.689 95.54C106.835 95.5376 106.98 95.5062 107.114 95.4476C107.248 95.389 107.37 95.3044 107.471 95.1986C107.572 95.0929 107.652 94.9682 107.705 94.8316C107.758 94.695 107.783 94.5492 107.779 94.4028V86.3534C107.779 85.2676 107.583 84.0789 105.009 84.0789H102.201V80.2742H105.116C107.096 80.2742 107.789 79.8296 107.789 77.7002V70.8208C107.792 70.6736 107.767 70.5271 107.713 70.3899C107.66 70.2527 107.579 70.1275 107.477 70.0216C107.375 69.9158 107.252 69.8313 107.117 69.7733C106.982 69.7153 106.836 69.6848 106.689 69.6836C106.541 69.6799 106.394 69.7073 106.257 69.7638C106.12 69.8204 105.997 69.9049 105.894 70.012C105.792 70.1191 105.713 70.2463 105.663 70.3856C105.613 70.5249 105.593 70.6731 105.603 70.8208V76.4647H98.6814V71.5696C98.6814 69.1454 98.9763 65.3921 103.829 65.3921H109.567C114.415 65.3921 114.715 69.136 114.715 71.5696V77.1106C114.715 80.8545 112.094 81.9028 110.035 81.7905V82.1368C114.682 82.0385 114.715 85.5999 114.715 86.8167V93.7897C114.715 96.2092 114.42 99.9672 109.567 99.9672H103.825C98.9763 99.9672 98.6768 96.2233 98.6768 93.7897V87.8884H105.598" fill="#0071BB"/>
<path d="M119.258 65.3921H135.282V99.9999H128.36V69.6836H126.179V99.9999H119.258V65.3921Z" fill="#0071BB"/>
<path d="M146.753 84.4252V69.6836H147.646C148.386 69.6836 148.929 70.3247 148.929 71.4104V82.6937C148.929 83.7841 148.386 84.4252 147.646 84.4252H146.753V84.4252ZM139.831 99.9999H146.753V88.2347H150.712C155.556 88.2347 155.86 84.4908 155.86 82.0525V71.5696C155.86 69.1454 155.56 65.3921 150.712 65.3921H139.831V99.9999Z" fill="#0071BB"/>
<path d="M169.501 94.4028C169.505 94.549 169.48 94.6946 169.428 94.8312C169.376 94.9678 169.297 95.0926 169.196 95.1984C169.095 95.3042 168.974 95.3889 168.84 95.4475C168.706 95.5061 168.561 95.5376 168.415 95.54C168.267 95.5436 168.12 95.5162 167.983 95.4597C167.846 95.4032 167.722 95.3188 167.619 95.2118C167.517 95.1048 167.437 94.9776 167.387 94.8383C167.336 94.699 167.315 94.5507 167.325 94.4028V70.8208C167.314 70.6727 167.335 70.5241 167.385 70.3845C167.436 70.2448 167.515 70.1174 167.618 70.0102C167.72 69.9031 167.844 69.8186 167.982 69.7624C168.119 69.7061 168.267 69.6793 168.415 69.6836C168.561 69.686 168.706 69.7174 168.84 69.7761C168.974 69.8347 169.095 69.9194 169.196 70.0252C169.297 70.131 169.376 70.2558 169.428 70.3924C169.48 70.5289 169.505 70.6746 169.501 70.8208V94.4028V94.4028ZM160.403 93.8225C160.403 96.242 160.698 99.9999 165.551 99.9999H171.27C176.114 99.9999 176.418 96.256 176.418 93.8225V71.5696C176.418 69.1454 176.123 65.3921 171.27 65.3921H165.546C160.698 65.3921 160.398 69.136 160.398 71.5696L160.403 93.8225Z" fill="#0071BB"/>
<path d="M198.974 65.3921H207.973V99.9999H201.047V78.2946H200.803L197.242 99.9999H191.706L188.144 78.2946H187.896V99.9999H180.975V65.3921H189.974L194.471 89.7182L198.974 65.3921Z" fill="#0071BB"/>
<path d="M55.256 18.0597C53.1407 8.77949 47.8243 1.21209 47.0942 0C45.9383 1.73156 41.6983 8.39574 39.5456 15.79C37.3994 23.1734 36.7627 30.9135 37.6736 38.5483C38.4785 45.7507 41.5252 53.1402 41.5252 53.1402C43.0081 56.7014 44.8923 60.0818 47.141 63.2161C49.4482 60.2116 54.7646 51.2542 56.4213 39.5451C57.3573 33.0401 57.3853 27.34 55.2653 18.0597H55.256ZM47.1036 60.9089C46.0647 58.9433 44.4454 55.2134 44.2957 49.4431C44.2582 43.86 46.4905 39.0865 47.1457 38.085C48.8365 41.4619 49.7692 45.1674 49.8788 48.9424C49.9811 53.1029 49.0228 57.2209 47.0942 60.9089H47.1036ZM54.6523 33.8123C54.6075 37.0081 54.258 40.1923 53.6087 43.3218C53.747 38.7873 53.3607 34.252 52.4574 29.8063C51.5682 25.5663 49.0645 18.4856 47.0662 15.2097C45.1942 18.3312 42.9432 24.4525 41.7498 29.7642C40.5564 35.0758 40.519 41.5107 40.519 43.4388C39.7886 39.0624 39.4908 34.6248 39.6298 30.19C39.8532 26.1295 40.4994 22.1033 41.5579 18.1767C43.8979 10.5906 46.5654 5.73756 47.0662 4.97005C49.4392 9.0703 51.3136 13.4396 52.6493 17.9848C54.0432 23.1429 54.7142 28.4696 54.6429 33.8123H54.6523Z" fill="#0071BB"/>
<path d="M50.6925 65.378H34.5749V76.1933L34.6124 76.1512C35.511 75.2292 36.5837 74.4948 37.7683 73.9907C38.9529 73.4865 40.2259 73.2226 41.5133 73.2142C42.8007 73.2058 44.077 73.4532 45.2681 73.9419C46.4592 74.4306 47.5414 75.1509 48.4519 76.0612C49.3624 76.9714 50.0831 78.0533 50.5722 79.2442C51.0614 80.4351 51.3091 81.7113 51.3012 82.9988C51.2933 84.2862 51.0298 85.5592 50.526 86.744C50.0223 87.9288 49.2882 89.0018 48.3666 89.9007L48.3198 89.9475L48.2636 89.999C45.9996 92.2483 43.2162 93.9051 40.1596 94.8227C37.1029 95.7404 33.8673 95.8907 30.7387 95.2603C27.6102 94.6298 24.6852 93.2382 22.2225 91.2084C19.7598 89.1785 17.8352 86.5731 16.619 83.6225C15.4029 80.6719 14.9325 77.467 15.2497 74.2914C15.5668 71.1158 16.6616 68.0672 18.4373 65.4154C20.213 62.7636 22.6148 60.5902 25.4303 59.0875C28.2458 57.5848 31.3882 56.799 34.5796 56.7998V30.8076C28.8448 30.8076 23.2 32.234 18.1535 34.9582C13.107 37.6824 8.81726 41.6189 5.67053 46.4133C2.5238 51.2077 0.618881 56.7095 0.127289 62.4232C-0.364303 68.1369 0.572869 73.8832 2.85442 79.1447C5.13598 84.4061 8.69027 89.0175 13.1973 92.5637C17.7043 96.1098 23.0225 98.4794 28.673 99.4589C34.3236 100.439 40.1291 99.9974 45.5667 98.1753C51.0044 96.3532 55.9035 93.2073 59.823 89.0209V65.378H50.6972" fill="#0071BB"/>
</svg>
